<?xml version="1.0" encoding="utf-8"?>
<!-- Generator: Adobe Illustrator 24.2.1, SVG Export Plug-In . SVG Version: 6.00 Build 0)  -->
<svg version="1.1" id="Layer_1" xmlns="http://www.w3.org/2000/svg" xmlns:xlink="http://www.w3.org/1999/xlink" x="0px" y="0px"
	 viewBox="0 0 260 260" style="enable-background:new 0 0 260 260;" xml:space="preserve">
<style type="text/css">
	.st0{display:none;}
	.st1{display:inline;}
	.st2{clip-path:url(#SVGID_2_);}
	.st3{fill:#FFFFFF;}
	.st4{fill:#1D1D1B;}
</style>
<g transform="translate(0.000000,260.000000) scale(0.100000,-0.100000)" class="st0">
	<path class="st1" d="M1132,2590c-557-79-988-483-1108-1041c-26-118-26-380,0-498c59-273,167-473,361-666C578,191,778,83,1051,24
		c118-26,380-26,498,0c273,59,473,167,666,361c194,193,302,393,361,666c14,62,18,127,18,249s-4,187-18,249c-59,273-167,473-361,666
		c-190,190-383,297-645,356C1472,2593,1230,2604,1132,2590z M1988,1758c95-36,188-148,207-251l7-37h-75h-74l-17,44
		c-34,88-130,145-225,132c-91-12-154-75-172-171c-6-34-9-135-7-240c3-165,5-184,27-228c33-69,85-101,170-105c81-4,141,23,185,86
		c24,34,30,54,34,116l5,76h-107h-106v65v65h186h187l-6-132c-8-196-44-280-151-352c-187-127-460-58-547,138c-51,117-48,522,6,631
		c44,92,139,162,248,185C1821,1792,1924,1782,1988,1758z M743,1473c78-166,146-303,152-303c5-1,72,136,149,304l141,306h77h78v-505
		V770h-80h-80l-2,327l-3,327l-111-235L954,955l-57-3l-57-3l-119,243l-119,243l-1-332l-1-333h-75h-75v505v506l76-3l76-3L743,1473z"/>
</g>
<g>
	<defs>
		<rect id="SVGID_1_" width="260" height="260"/>
	</defs>
	<clipPath id="SVGID_2_">
		<use xlink:href="#SVGID_1_"  style="overflow:visible;"/>
	</clipPath>
	<g class="st2">
		<path class="st3" d="M130,260C58.1,260,0,201.9,0,130S58.1,0,130,0s130,58.1,130,130S201.9,260,130,260z"/>
		<circle cx="130" cy="130" r="122.2"/>
	</g>
	<g class="st2">
		<g>
			<path class="st4" d="M31.1,186.1c-1.6,0-1.6,0-3.2,0h-1.6c-1.6,0-3.2,0-4.8-1.6c-3.2-1.6-6.4-3.2-11.2-8l0,0
				c-1.6-3.2-3.2-6.4-1.6-11.2v-3.2c0-1.6,0-3.2,0-4.8l0,0v-28.8c0-1.6,0-1.6,0-3.2v-3.2c0,0,0,0,0-1.6v-8c0,0,0-3.2,0-4.8V106v-1.6
				c0-1.6,0-4.8,0-8c0-1.6,0-3.2,1.6-3.2c0-1.6,1.6-1.6,1.6-3.2c3.2-3.2,8-6.4,11.2-6.4h1.6c0,0,0,0,1.6,0h1.6h1.6
				c1.6,0,1.6,0,3.2,0c1.6,0,1.6,0,3.2,0l0,0c4.8,0,8,3.2,9.6,8c1.6,1.6,1.6,3.2,1.6,6.4v1.6v4.8c0,1.6,0,1.6,0,3.2s0,1.6,0,3.2
				s0,3.2,0,4.8v14.4v1.6c0,1.6,0,1.6,0,3.2c0,0,0,0,0,1.6c0,1.6,0,3.2,0,4.8v3.2v1.6v1.6v1.6c0,0,0,0,0,1.6v1.6v1.6l0,0v1.6v1.6
				c0,1.6,0,1.6,0,3.2s0,1.6,0,3.2c0,0,0,0,0,1.6v1.6v1.6l0,0c0,3.2-1.6,8-4.8,9.6c-1.6,1.6-1.6,1.6-3.2,3.2s-4.8,3.2-9.6,3.2
				C32.7,186.1,31.1,186.1,31.1,186.1z"/>
			<path class="st4" d="M45.5,125.3c-1.6,0-1.6,0-3.2,0l0,0c-3.2,0-6.4-1.6-8-3.2c0,0,0,0-1.6-1.6c-1.6-1.6-3.2-4.8-4.8-8
				c0-1.6,0-4.8,0-6.4s0-1.6,0-1.6c0-1.6,0-1.6,0-3.2v-1.6c0-3.2,1.6-8,4.8-9.6c3.2-3.2,8-4.8,9.6-4.8c8,0,12.8,0,16,0h3.2h1.6
				c1.6,0,3.2,0,4.8,0h1.6c1.6,0,4.8,1.6,6.4,1.6c3.2,1.6,6.4,3.2,8,6.4c1.6,1.6,1.6,4.8,1.6,6.4s0,1.6,0,3.2c0,0,0,1.6,0,3.2
				s0,1.6,0,3.2v1.6c0,3.2-1.6,6.4-3.2,9.6c0,0-1.6,1.6-3.2,1.6c-1.6,1.6-3.2,3.2-4.8,3.2c-1.6,0-3.2,0-4.8,0h-1.6
				c-1.6,0-1.6,0-3.2,0h-9.6h-1.6c-1.6,0-1.6,0-3.2,0C50.3,125.3,47.1,125.3,45.5,125.3L45.5,125.3z"/>
			<path class="st4" d="M66.3,155.7c-1.6,0-3.2,0-4.8,0h-9.6c-1.6,0-1.6,0-3.2,0h-1.6c-1.6,0-3.2,0-4.8,0c-1.6,0-4.8-1.6-6.4-3.2
				c-3.2-3.2-4.8-6.4-6.4-8v-1.6c0-1.6,0-3.2,0-4.8c0-1.6,0-1.6,0-3.2c0-1.6,0-1.6,0-1.6v-1.6c0-3.2,1.6-6.4,3.2-8
				c1.6-3.2,4.8-4.8,8-6.4c3.2-1.6,4.8-1.6,8-1.6c1.6,0,3.2,0,4.8,0c1.6,0,1.6,0,3.2,0h3.2h1.6c1.6,0,3.2,0,3.2,0
				c1.6,0,3.2,0,4.8,1.6c3.2,0,4.8,1.6,8,3.2c1.6,1.6,3.2,3.2,4.8,6.4c0,0,0,1.6,0,3.2s0,3.2,0,4.8c0,1.6,0,3.2,0,4.8
				c0,1.6,0,1.6,0,3.2v1.6c0,1.6,0,1.6,0,1.6c0,4.8-3.2,8-4.8,9.6c-1.6,1.6-4.8,3.2-6.4,3.2h-1.6C67.9,154.1,66.3,155.7,66.3,155.7z
				"/>
			<path class="st4" d="M75.9,184.5c-1.6,0-3.2,0-4.8-1.6c-1.6,0-1.6,0-3.2-1.6c-1.6,0-3.2-1.6-4.8-3.2c-1.6-1.6-3.2-1.6-4.8-3.2
				c-1.6-1.6-4.8-4.8-6.4-6.4c0,0,0-1.6-1.6-1.6c0-1.6-1.6-1.6-1.6-3.2c-1.6-1.6-1.6-3.2-1.6-6.4v-8c0-1.6,0-4.8,1.6-6.4
				c0-1.6,0-1.6,1.6-3.2c0-1.6,1.6-3.2,3.2-4.8c0-1.6,1.6-1.6,1.6-3.2c0,0,0-1.6-1.6-1.6c0-1.6-1.6-3.2-1.6-4.8c0-1.6,0-3.2,0-4.8
				v-6.4c0-1.6,0-3.2,1.6-4.8c0-1.6,1.6-3.2,1.6-4.8c0-1.6,1.6-1.6,1.6-3.2c0,0,0-1.6,1.6-1.6c0,0,0,0,0-1.6c3.2-3.2,4.8-6.4,8-9.6
				c3.2-1.6,4.8-3.2,9.6-4.8c0,0,1.6,0,3.2,0c0,0,1.6,0,3.2-1.6c1.6,0,3.2,0,3.2,0h4.8c1.6,0,4.8,0,6.4,1.6c1.6,0,3.2,1.6,4.8,3.2
				l1.6,1.6c1.6,1.6,3.2,4.8,3.2,8v4.8c0,1.6,0,3.2-1.6,4.8c-1.6,3.2-3.2,4.8-6.4,8c1.6,1.6,3.2,3.2,4.8,4.8c0,1.6,1.6,1.6,1.6,3.2
				v1.6c0,1.6,0,3.2,0,4.8c0,0,0,0,0,1.6v1.6v4.8c0,3.2-1.6,4.8-1.6,8c0,0-1.6,1.6-1.6,3.2c3.2,3.2,4.8,8,4.8,12.8c0,0,0,1.6,0,3.2
				s0,1.6,0,3.2c0,0,0,1.6,0,3.2v1.6c0,1.6-1.6,3.2-1.6,4.8c-1.6,3.2-4.8,4.8-8,6.4c-1.6,0-3.2,0-4.8,0
				C88.7,184.5,75.9,184.5,75.9,184.5z"/>
			<path class="st4" d="M101.5,186.1c-3.2,0-8-1.6-11.2-4.8c-1.6-1.6-3.2-3.2-3.2-4.8c0-1.6-1.6-3.2-1.6-6.4c0-1.6,0-1.6,0-3.2
				s0-3.2,0-3.2c0-3.2,1.6-8,3.2-9.6c0,1.6-1.6,1.6-1.6,1.6c0-1.6,1.6-3.2,1.6-3.2l-1.6-1.6l-1.6-1.6c-1.6-1.6-1.6-4.8-1.6-6.4
				v-11.2c0-3.2,1.6-6.4,3.2-8c0,0,1.6-1.6,1.6-3.2c-1.6-1.6-1.6-1.6-3.2-3.2c-1.6-3.2-3.2-6.4-3.2-9.6V106c0-1.6,0-3.2,0-4.8
				c0-1.6,0-4.8,1.6-6.4c1.6-3.2,3.2-6.4,6.4-6.4c3.2-1.6,6.4-1.6,8-1.6s3.2,0,4.8,0h3.2h1.6c0,0,3.2,1.6,6.4,3.2
				c1.6,0,3.2,1.6,4.8,3.2c3.2,1.6,4.8,4.8,8,8c1.6,1.6,1.6,3.2,1.6,4.8c0,0,0,1.6,1.6,3.2l0,0c1.6,3.2,1.6,4.8,3.2,8
				c0,3.2,1.6,4.8,1.6,6.4s0,3.2,0,3.2v1.6v1.6c0,1.6,0,4.8-1.6,6.4c0,1.6,1.6,1.6,1.6,3.2c1.6,1.6,1.6,3.2,1.6,4.8
				c3.2,6.4,3.2,9.6,3.2,11.2s0,1.6,0,3.2s0,1.6,0,3.2s-1.6,3.2-1.6,4.8c0,1.6-1.6,3.2-3.2,4.8c0,1.6-1.6,1.6-1.6,3.2
				c0,0,0,1.6-1.6,1.6c0,0-1.6,1.6-3.2,3.2c-1.6,0-1.6,1.6-3.2,1.6c0,0-1.6,1.6-3.2,1.6c-1.6,1.6-3.2,1.6-6.4,1.6
				c-1.6,0-1.6,0-3.2,0h-6.4C104.7,184.5,103.1,186.1,101.5,186.1z"/>
			<path class="st4" d="M127.1,186.1c-1.6,0-1.6,0-3.2,0h-3.2c-1.6,0-1.6,0-3.2,0s-3.2,0-4.8,0c-4.8,0-8-3.2-9.6-6.4
				c0-1.6-1.6-3.2-1.6-4.8c0-1.6,0-3.2,0-4.8c0-3.2,0-4.8,1.6-6.4c0-1.6,0-1.6,1.6-3.2c0-1.6,1.6-3.2,3.2-4.8c0-1.6,1.6-3.2,1.6-4.8
				c0-1.6,1.6-1.6,1.6-3.2s1.6-1.6,1.6-3.2c0,0,0-1.6,1.6-1.6v-1.6c0-1.6,0-3.2,1.6-3.2v-1.6c0-1.6,0-1.6,1.6-3.2
				c0-1.6,1.6-3.2,1.6-4.8c0,0,0-1.6,1.6-1.6c0,0,0-1.6,1.6-1.6c0-1.6,1.6-3.2,1.6-4.8c0-1.6,1.6-4.8,3.2-6.4
				c3.2-3.2,6.4-6.4,11.2-6.4c3.2,0,6.4,1.6,9.6,3.2c3.2,3.2,6.4,6.4,6.4,9.6v1.6c1.6,3.2,3.2,4.8,4.8,8c1.6,3.2,1.6,4.8,1.6,8
				c0,3.2,0,4.8-1.6,6.4c0,1.6-1.6,3.2-1.6,3.2s0,1.6-1.6,1.6v1.6c0,1.6-1.6,4.8-3.2,6.4v1.6v1.6c0,1.6,0,1.6-1.6,3.2
				c0,1.6-1.6,4.8-3.2,8c0,1.6-1.6,4.8-4.8,6.4c-1.6,1.6-4.8,4.8-8,4.8l0,0C130.3,184.5,128.7,186.1,127.1,186.1z"/>
			<path class="st4" d="M170.4,186.1c-1.6,0-3.2,0-6.4-1.6c-1.6,0-1.6,0-3.2-1.6c-3.2-1.6-4.8-3.2-6.4-6.4c0,0,0-1.6-1.6-1.6l0,0
				c-1.6,0-1.6,0-3.2,0h-4.8c-3.2,0-6.4-1.6-8-3.2s-3.2-3.2-4.8-6.4c0-1.6-1.6-4.8-1.6-6.4c0-3.2,1.6-6.4,1.6-9.6c0,0,0,0,1.6-1.6
				c0-1.6,0-1.6,0-3.2c0-3.2,1.6-4.8,3.2-8c0,0,0,0,0-1.6l0,0c0,0,0-1.6-1.6-4.8c0,0,0,0,0-1.6c-1.6-1.6-1.6-3.2-1.6-4.8v-1.6
				c0,0,0-1.6-1.6-1.6c-1.6-1.6-1.6-3.2-1.6-4.8c-1.6-3.2-1.6-4.8-3.2-6.4l-1.6-1.6c-3.2-4.8-3.2-8-3.2-11.2s1.6-6.4,3.2-9.6
				c1.6-3.2,8-6.4,11.2-6.4h9.6c1.6,0,3.2,0,3.2,0c1.6,0,3.2,0,4.8,0c1.6,0,3.2,1.6,4.8,1.6c4.8,3.2,8,6.4,9.6,12.8v1.6
				c0,1.6,1.6,3.2,1.6,4.8c0,1.6,0,1.6,0,3.2l0,0v1.6c0,1.6,1.6,1.6,1.6,3.2v1.6c0,0,1.6,1.6,1.6,3.2s1.6,4.8,1.6,4.8
				c0,1.6,1.6,1.6,1.6,3.2s1.6,3.2,1.6,4.8c0,0,0,1.6,0,3.2s1.6,3.2,1.6,4.8c1.6,1.6,1.6,4.8,3.2,8c0,0,1.6,1.6,1.6,3.2
				c1.6,3.2,3.2,6.4,4.8,9.6c0,1.6,0,1.6,0,3.2v1.6c1.6,3.2,3.2,6.4,3.2,9.6s-1.6,6.4-4.8,11.2c-1.6,1.6-3.2,1.6-4.8,3.2
				c-1.6,1.6-3.2,1.6-6.4,1.6h-3.2C172,186.1,172,186.1,170.4,186.1C170.4,186.1,170.4,186.1,170.4,186.1z"/>
			<path class="st4" d="M199.2,186.1c-6.4,0-12.8-3.2-16-9.6v-1.6l-1.6-4.8l0,0c-1.6-1.6-1.6-3.2-1.6-4.8c0-1.6,0-1.6,0-3.2
				s-1.6-1.6-1.6-3.2c-1.6-1.6-1.6-3.2-1.6-4.8c0-1.6-1.6-3.2-1.6-4.8c-1.6-1.6-1.6-3.2-3.2-4.8v-1.6c0-1.6,0-3.2-1.6-4.8v-1.6
				c0,0,0-1.6-1.6-1.6l0,0l-3.2-4.8c0-1.6-1.6-1.6-1.6-3.2c0,0,0-1.6-1.6-1.6c0,0-1.6-1.6-1.6-3.2c0,0-1.6-3.2-3.2-6.4
				c0-1.6,0-1.6,0-3.2s0-1.6-1.6-3.2c0,0,0,0,0-1.6c-1.6-1.6-1.6-4.8-1.6-6.4s0-3.2,0-3.2c0-3.2,1.6-4.8,4.8-8c0,0,1.6-1.6,3.2-1.6
				c1.6-1.6,4.8-1.6,6.4-1.6h3.2c1.6,0,1.6,0,3.2,0h4.8c3.2,0,4.8,0,6.4,1.6c1.6,0,4.8,1.6,8,6.4c0,1.6,1.6,3.2,1.6,3.2l1.6,1.6
				l3.2,4.8c0,0,0,1.6,1.6,1.6c1.6,1.6,1.6,3.2,1.6,4.8c0,1.6,0,3.2,0,4.8l0,0v1.6c1.6,1.6,1.6,3.2,1.6,4.8c0,1.6,1.6,3.2,1.6,4.8
				c0,1.6,1.6,3.2,1.6,3.2l1.6,1.6c0,1.6,1.6,1.6,1.6,3.2c0,0,0,1.6,0,3.2c1.6,1.6,1.6,4.8,1.6,6.4l0,0c1.6,1.6,1.6,3.2,3.2,6.4
				c0,0,0,1.6,1.6,4.8l1.6,3.2c3.2,4.8,3.2,8,3.2,12.8c0,3.2-1.6,6.4-3.2,9.6c-1.6,4.8-6.4,6.4-11.2,6.4h-9.6
				C202.4,186.1,200.8,186.1,199.2,186.1z"/>
			<path class="st4" d="M218.4,163.7c-3.2,0-6.4,0-9.6-3.2c-1.6-1.6-3.2-3.2-4.8-6.4c0,0,0-1.6-1.6-4.8c0,0-1.6-1.6-1.6-3.2
				s-1.6-1.6-1.6-3.2c0,0,0-1.6-1.6-1.6c-1.6-3.2-1.6-4.8-1.6-8c0-3.2,0-6.4,3.2-11.2c0-1.6,1.6-1.6,1.6-3.2v-1.6
				c0-1.6,1.6-3.2,1.6-4.8c0,0,0-1.6,1.6-1.6c0,0,0-1.6,0-3.2s0-1.6,1.6-3.2c0-1.6,1.6-3.2,1.6-4.8c1.6-3.2,3.2-6.4,4.8-9.6
				c4.8-4.8,9.6-6.4,12.8-6.4c1.6,0,1.6,0,3.2,0h4.8c1.6,0,1.6,0,3.2,0s3.2,0,4.8,0c4.8,1.6,9.6,6.4,9.6,12.8c0-3.2-1.6-6.4-1.6-6.4
				c1.6,1.6,1.6,3.2,3.2,6.4c0,0,0,1.6,0,4.8c0,1.6,0,3.2-1.6,6.4c0,1.6-1.6,4.8-3.2,6.4c0,0,0,1.6-1.6,1.6l-3.2,6.4
				c0,0,0,1.6-1.6,1.6c0,1.6-1.6,1.6-1.6,4.8c0,1.6,0,3.2-1.6,4.8v1.6c-1.6,3.2-3.2,8-6.4,12.8l0,0c0,1.6,0,1.6-1.6,3.2
				s-1.6,3.2-1.6,3.2c0,1.6,0,1.6-1.6,3.2C228,160.5,223.2,163.7,218.4,163.7z"/>
		</g>
		<g>
			<path class="st3" d="M32.7,96.4C32.7,96.4,32.7,98,32.7,96.4C34.3,98,34.3,98,32.7,96.4c1.6,0,1.6,0,1.6,0l0,0l0,0l0,0
				c1.6,0,1.6,1.6,1.6,1.6s0,1.6,0,6.4l0,0l0,0c0,0,0,1.6-1.6,1.6l0,0v1.6l0,0l0,0l0,0l0,0c0,0,0,0,1.6,1.6c0,0,0,0-1.6,1.6l0,0l0,0
				c0,1.6,0,1.6,0,1.6l0,0l0,0v14.4c0,0,0,0,0,1.6v1.6c0,0,0,0,0,1.6v1.6l0,0l0,0l0,0c0,0,0,0,0,1.6c0,1.6,0,1.6,0,1.6s0,0,0,1.6
				l0,0l0,0v1.6l0,0l0,0l0,0c0,0,0,0,0,1.6c0,0,0,0,0,1.6l0,0l0,0l0,0l0,0l0,0l0,0l0,0l0,0l0,0l0,0c0,0,0,0,0,1.6l0,0l0,0l0,0l0,0
				l0,0l0,0l0,0l0,0l0,0l0,0l0,0l0,0l0,0c0,0,0,0,0,1.6c0,0,0,0,0,1.6l0,0l0,0c0,0,0,0,0,1.6c0,0,0,0,0,1.6v1.6l0,0l0,0
				c0,0,0,0,0,1.6v1.6c0,0,0,0,0,1.6c0,0,0,0,0,1.6l0,0l0,0c0,0,0,0-1.6,1.6l-1.6,1.6c0,0,0,0-1.6,0l0,0l0,0c0,0,0,0-1.6,0l0,0l0,0
				l0,0l0,0c0,0,0,0-1.6,0h-1.6l0,0l0,0l0,0l0,0c0,0,0,0-1.6,0l0,0l0,0l0,0l0,0c-1.6,0-1.6-1.6-3.2-3.2c0,0,0,0-1.6-1.6
				c0-1.6,0-3.2,0-3.2l0,0l0,0l0,0l0,0l0,0l0,0l0,0l0,0l0,0v-1.6c0-1.6,0-3.2,0-4.8v-27.2c0,0,0,0,0-1.6c0,0,0-1.6,0,0l0,0v-1.6l0,0
				l0,0v-1.6l0,0l0,0l0,0l0,0l0,0l0,0l0,0l0,0l0,0l0,0l0,0l0,0l0,0l0,0l0,0l0,0l0,0l0,0c0,0,0,0,0-1.6c0,0,0,0,0-1.6l0,0v-1.6l0,0
				l0,0l0,0l0,0l0,0l0,0l0,0l0,0l0,0l0,0l0,0l0,0c0,0,0,0,0-1.6l0,0l0,0v-1.6l0,0c0,0,0-1.6,1.6-1.6l1.6-1.6l0,0l0,0l0,0l0,0l0,0
				l0,0c0,0,0,0,1.6,0h1.6h1.6c0,0,0,0,1.6,0C31.1,98,31.1,98,32.7,96.4C32.7,98,32.7,96.4,32.7,96.4z"/>
			<path class="st3" d="M69.5,96.4L69.5,96.4L69.5,96.4C71.1,96.4,71.1,96.4,69.5,96.4c1.6,0,1.6,0,1.6,0s0,0,1.6,0h1.6V98l0,0l0,0
				l0,0l0,0c0,0,0,0,0,1.6c0,0,0,1.6,0,3.2s0,1.6,0,3.2l0,0l0,0l0,0l0,0c0,0,0,0,0,1.6c0,0-1.6,1.6-3.2,1.6l0,0l0,0l0,0
				c0,0-1.6,0,0,0h-1.6l0,0c0,0,0,0-1.6,0c0,0,0,0-1.6,0l0,0l0,0l0,0l0,0l0,0l0,0l0,0l0,0l0,0l0,0l0,0l0,0l0,0l0,0l0,0l0,0l0,0l0,0
				l0,0l0,0l0,0l0,0l0,0l0,0l0,0c0,0,0,0-1.6,0h-1.6l0,0l0,0c0,0,0,0-1.6,0l0,0c-1.6,0-3.2,0-4.8,0c-3.2,0-3.2,0-3.2,0l0,0l0,0
				c0,0,0,0,0-1.6l0,0l0,0V106l0,0l0,0c0,0,0,0,0-1.6c0,0,0,0,0-1.6v-1.6c0-1.6,0-1.6,0-1.6l0,0l0,0l0,0l0,0c0,0,0,0,0-1.6h1.6
				c8,0,12.8,0,16,0h4.8l0,0l0,0l0,0l0,0l0,0l0,0l0,0C67.9,96.4,67.9,96.4,69.5,96.4z"/>
			<path class="st3" d="M66.3,123.7c0,0,1.6,0,1.6,1.6c0,0,0,0,1.6,0c0,0,0,0,1.6,1.6v1.6v1.6v1.6l0,0v6.4l0,0l0,0l0,0l0,0l0,0l0,0
				c0,0,0,0,0,1.6c0,0,0,0,0,1.6c0,0,0,0-1.6,1.6c0,0,0,0-1.6,0h-1.6c0,0,0,0-1.6,0l0,0l0,0l0,0l0,0c0,0,0,0-1.6,0l0,0H48.7l0,0l0,0
				l0,0l0,0l0,0l0,0c0,0,0,0-1.6,0h-1.6c-1.6,0-1.6-1.6-1.6-1.6s0-1.6,0-3.2s0-3.2,0-3.2c0-1.6,0-3.2,0-3.2c0-1.6,0-1.6,0-1.6l0,0
				l0,0c0-1.6,0-1.6,1.6-1.6c1.6,0,3.2,0,4.8,0l0,0l0,0h6.4l0,0l0,0l0,0l0,0l0,0l0,0l0,0l0,0l0,0l0,0l0,0l0,0l0,0c0,0,1.6,0,3.2,0
				l0,0C64.7,125.3,64.7,125.3,66.3,123.7C64.7,125.3,64.7,125.3,66.3,123.7C66.3,125.3,66.3,123.7,66.3,123.7L66.3,123.7z"/>
			<path class="st3" d="M82.3,96.4h4.8c0,0,1.6,0,3.2,0l1.6,1.6v4.8c-1.6,3.2-3.2,4.8-6.4,6.4c-1.6,0-1.6,3.2-1.6,8
				c0,3.2,0,4.8,0,4.8l1.6,1.6c0,0,0,0,1.6,0c0,0,1.6,0,3.2,1.6c1.6,0,1.6,1.6,3.2,1.6c0,0,0,0,0,1.6v1.6c0,0,0,0,0,1.6
				c0,0,0,0,0,1.6c0,0,0,0,0,1.6v4.8l-1.6,1.6c-1.6,0-1.6,1.6-3.2,1.6c-3.2,1.6-3.2,4.8-3.2,6.4c0,0,0,0,0,1.6v1.6
				c1.6,1.6,3.2,3.2,4.8,4.8c0,0,0,0,1.6,0c1.6,1.6,3.2,3.2,3.2,4.8c0,0,0,0,0,1.6s0,1.6,0,1.6s0,0,0,1.6v1.6c0,0,0,0,0,1.6
				s0,1.6,0,1.6l-1.6,1.6H79.1c-1.6,0-1.6-1.6-3.2-1.6s-3.2-1.6-4.8-3.2c0,0-1.6-1.6-3.2-3.2s-3.2-1.6-3.2-3.2s-1.6-1.6-1.6-4.8v-8
				c0,0,0,0,0-1.6c0,0,0,0,0-1.6s0-3.2,1.6-4.8c0,0,0,0,1.6-1.6c0-1.6,0-1.6,1.6-1.6c1.6-1.6,1.6-1.6,3.2-3.2l1.6-1.6
				c1.6,0,1.6-1.6,1.6-1.6l0,0l-1.6-1.6l0,0c0,0-1.6-1.6-3.2-3.2c0-1.6-1.6-1.6-1.6-4.8v-1.6v-6.4l0,0l0,0c0-1.6,0-1.6,1.6-3.2
				c0-1.6,1.6-1.6,1.6-3.2c0,0,0,0,1.6-1.6v-1.6c1.6-1.6,3.2-3.2,4.8-4.8C79.1,98,80.7,98,82.3,96.4C79.1,98,80.7,96.4,82.3,96.4z"
				/>
			<path class="st3" d="M101.5,96.4h1.6c0,0,1.6,0,3.2,0c0,0,1.6,1.6,4.8,3.2c0,0,1.6,1.6,3.2,1.6c1.6,1.6,4.8,4.8,6.4,6.4
				c0,1.6,1.6,3.2,1.6,4.8c0,0,0,0,1.6,1.6c0,0,0,1.6,1.6,3.2c0,1.6,0,3.2,0,3.2s0,1.6-1.6,4.8c0,0,0,1.6,0,3.2
				c0,1.6-1.6,3.2-3.2,4.8c0,0-1.6,0-1.6,1.6c0,0,0,0,0,1.6v1.6c0,0,1.6,1.6,3.2,1.6l1.6,1.6c0,1.6,1.6,3.2,3.2,4.8
				c0,0,0,1.6,1.6,3.2c0,3.2,1.6,6.4,1.6,8v1.6v1.6c-1.6,1.6-1.6,3.2-3.2,4.8l-1.6,1.6l-1.6,1.6c-1.6,0-1.6,1.6-4.8,1.6
				c0,0-1.6,0-3.2,0h-8h-1.6c-1.6,0-1.6,0-1.6,0c-1.6,0-1.6,0-3.2-1.6c0,0,0,0,0-1.6v-1.6l0,0l0,0v-4.8v-1.6c0-1.6,0-1.6,0-1.6
				s0-1.6,1.6-1.6s3.2-1.6,4.8-1.6c0,0,0-1.6,1.6-1.6l1.6-1.6v-1.6c0,0,0,0,0-1.6c0,0,0-1.6,0-3.2s-1.6-1.6-1.6-1.6s-1.6,0-3.2,0
				c0,0,0,0-1.6-1.6c0,0,0-1.6-1.6-1.6v-11.2c1.6-1.6,1.6-3.2,4.8-4.8c0,0,1.6-1.6,3.2-1.6v-1.6c0,0,0-1.6,1.6-1.6v-1.6
				c0,0,0,0-1.6-3.2c0,0,0-1.6,0-3.2c0,0,0,0,0-1.6c0,0-1.6,0-3.2,0c0,0-1.6,0-1.6-1.6s-1.6-1.6-1.6-3.2c0,0,0,0,0-1.6s0-3.2,0-4.8
				c0,0,0,0,0-1.6l0,0C99.9,96.4,101.5,96.4,101.5,96.4z"/>
			<path class="st3" d="M135.1,118.9L135.1,118.9c1.6,1.6,3.2,1.6,3.2,3.2c0,0,0,1.6,0,3.2c0,0,0,0,0,1.6c0,0,0,0,0,1.6
				c1.6,1.6,3.2,4.8,4.8,6.4c0,1.6,0,1.6,0,3.2s0,1.6,0,3.2s0,1.6-1.6,3.2c0,0,0,0-1.6,1.6c0,0,0,0,0,1.6l-1.6,1.6v1.6l-1.6,1.6
				c0,1.6-1.6,3.2-1.6,4.8c0,0,0,1.6,0,3.2s-1.6,4.8-3.2,8c0,0,0,1.6-1.6,1.6l-1.6,1.6c0,0,0,0-1.6,0h-1.6l0,0l0,0h-8l0,0l0,0
				c0,0,0,0-1.6,0h-1.6c0,0,0,0-1.6-1.6v-1.6c0-1.6,0-1.6,1.6-3.2c0,0,0,0,0-1.6s1.6-3.2,3.2-4.8c0,0,0,0,0-1.6c0,0,0-1.6,1.6-4.8
				c0,0,0-1.6,1.6-1.6c0-1.6,1.6-3.2,1.6-4.8c0,0,0,0,0-1.6s0-3.2,1.6-4.8c0,0,1.6-1.6,1.6-3.2c0,0,0,0,0-1.6c0,0,0,0,0-1.6
				c0-1.6,0-1.6,1.6-4.8c0,0,0,0,1.6,0v-1.6c0,0,0-1.6,1.6-1.6v-1.6c1.6-1.6,1.6-3.2,1.6-6.4C133.5,118.9,135.1,118.9,135.1,118.9z"
				/>
			<path class="st3" d="M151.1,96.4C152.7,96.4,152.7,96.4,151.1,96.4c1.6,0,3.2,0,3.2,0c1.6,0,1.6,1.6,1.6,3.2s0,1.6,0,3.2
				s1.6,3.2,1.6,6.4c0,0,0,1.6,0,3.2c0,0,0,1.6,1.6,3.2c0,1.6,0,1.6,1.6,4.8c0,0,0,0,0,1.6s1.6,3.2,1.6,4.8c0,0,0,0,0,1.6
				c0,1.6,1.6,1.6,3.2,4.8c0,1.6,0,3.2,1.6,6.4c0,1.6,1.6,3.2,3.2,4.8c0,1.6,1.6,4.8,3.2,8c0,0,1.6,1.6,1.6,3.2s1.6,4.8,3.2,8v1.6
				c0,1.6,1.6,1.6,1.6,3.2c1.6,1.6,1.6,3.2,1.6,3.2s0,1.6-1.6,1.6c0,0,0,0-1.6,0H172l0,0l0,0h-4.8l0,0h-1.6l-1.6-1.6
				c0,0,0,0-1.6-1.6c0-1.6,0-1.6-1.6-3.2c0,0,0-1.6-1.6-1.6c-1.6-1.6-1.6-1.6-1.6-1.6h-9.6l0,0l0,0h-4.8l-1.6-1.6v-1.6
				c0-1.6,0-1.6,0-1.6s0-1.6,1.6-1.6l1.6-1.6v-1.6v-1.6c0-1.6,1.6-3.2,1.6-3.2h1.6c0,0,1.6,0,1.6-1.6h1.6l1.6-1.6c0-1.6,0-1.6,0-1.6
				s0,0-1.6-1.6c0,0,0,0,0-1.6l0,0c0,0,0-1.6-1.6-4.8c0,0-1.6-1.6-1.6-4.8c0,0,0-1.6-1.6-1.6c0-1.6,0-3.2-1.6-6.4l0,0
				c0,0,0-1.6-1.6-3.2c0-1.6,0-1.6-1.6-3.2c-1.6-1.6-1.6-3.2-1.6-3.2v-1.6c0-4.8,0-6.4-1.6-8s-1.6-3.2-1.6-4.8V98c0,0,0-1.6,1.6-1.6
				h11.2C151.1,96.4,151.1,96.4,151.1,96.4z"/>
			<path class="st3" d="M176.8,96.4h4.8h1.6c1.6,0,1.6,0,1.6,1.6c0,0,0,0,1.6,1.6v1.6c0,0,0,0,1.6,1.6c0,1.6,1.6,3.2,1.6,4.8
				c0,0,0,0,0,1.6l0,0c1.6,1.6,1.6,3.2,1.6,4.8c0,1.6,0,3.2,0,4.8c0,0,0,1.6,1.6,1.6c1.6,1.6,1.6,1.6,1.6,1.6s0,1.6,0,3.2
				c0,0,0,0,0,1.6v1.6c1.6,1.6,1.6,3.2,3.2,6.4l1.6,1.6c0,0,0,1.6,1.6,4.8v1.6v1.6l0,0l0,0c0,1.6,0,3.2,1.6,3.2c0,0,0,1.6,1.6,3.2
				c0,1.6,1.6,3.2,3.2,8c1.6,1.6,1.6,3.2,3.2,4.8c1.6,1.6,1.6,4.8,1.6,4.8s0,1.6-1.6,3.2h-11.2h-1.6c-1.6,0-3.2,0-4.8-1.6
				c0-1.6-1.6-3.2-1.6-6.4l-1.6-1.6c0-1.6,0-3.2-1.6-6.4c0-1.6-1.6-3.2-3.2-4.8l0,0c0-1.6-1.6-4.8-3.2-8c0-1.6-1.6-1.6-3.2-4.8
				c0-1.6,0-3.2-1.6-4.8l0,0c0,0,0-1.6-1.6-3.2s-1.6-3.2-3.2-6.4c0,0,0,0,0-1.6c0,0-1.6-1.6-1.6-3.2c0,0,0-1.6-1.6-1.6
				c0,0,0-1.6-1.6-6.4v-1.6c0,0,0,0-1.6-1.6V106c0,0,0-1.6-1.6-1.6c0,0,0,0,0-1.6v-1.6l1.6-1.6L176.8,96.4
				C175.2,96.4,175.2,96.4,176.8,96.4C175.2,96.4,175.2,96.4,176.8,96.4z"/>
			<path class="st3" d="M226.4,96.4L226.4,96.4h9.6l0,0l0,0c0,0,0,0,1.6,0h1.6c0,0,0,0,1.6,1.6v1.6v1.6c0,1.6,0,1.6,0,1.6
				s-1.6,1.6-1.6,3.2c0,0,0,0,0,1.6s-1.6,3.2-3.2,6.4c-1.6,1.6-1.6,3.2-3.2,6.4c0,1.6,0,3.2-1.6,6.4c-1.6,3.2-3.2,8-6.4,14.4v1.6
				c-1.6,3.2-1.6,4.8-1.6,6.4l-1.6,1.6c0,0-1.6,0-1.6-1.6l-1.6-1.6c0,0-1.6-3.2-1.6-6.4c0-1.6-1.6-1.6-1.6-3.2v-1.6c0,0,0,0,0-1.6
				c0-1.6,0-1.6,0-3.2s0-3.2,1.6-4.8c0,0,0,0,1.6-1.6c0,0,0,0,0-1.6c0,0,0-1.6,1.6-1.6c0,0,0-1.6,0-3.2c1.6-1.6,3.2-3.2,3.2-6.4
				c0,0,0-1.6,0-3.2c1.6-1.6,1.6-3.2,3.2-6.4c0-1.6,1.6-3.2,1.6-3.2C223.2,96.4,224.8,96.4,226.4,96.4z"/>
		</g>
	</g>
</g>
</svg>
