<?xml version="1.0" encoding="utf-8"?>
<!-- Generator: Adobe Illustrator 24.2.1, SVG Export Plug-In . SVG Version: 6.00 Build 0)  -->
<svg version="1.1" id="Layer_1" xmlns="http://www.w3.org/2000/svg" xmlns:xlink="http://www.w3.org/1999/xlink" x="0px" y="0px"
	 viewBox="0 0 48 48" style="enable-background:new 0 0 48 48;" xml:space="preserve">
<style type="text/css">
	.st0{fill:none;}
	.st1{fill:#EBEBDF;}
	.st2{display:none;}
	.st3{display:inline;fill:#AFAFAF;}
	.st4{display:inline;opacity:0.5;}
	.st5{opacity:0.5;}
	.st6{clip-path:url(#SVGID_2_);}
	.st7{fill:none;stroke:#AFAFAF;stroke-width:0.2394;stroke-miterlimit:10;}
	.st8{display:inline;fill:url(#SVGID_3_);fill-opacity:0.5;}
	.st9{display:none;fill-rule:evenodd;clip-rule:evenodd;fill:#FFFFFF;}
	.st10{clip-path:url(#SVGID_5_);}
	.st11{fill:#FFFFFF;}
	.st12{fill:#C81EC8;}
	.st13{fill:#EEF8FB;}
	.st14{fill:#091A08;}
	.st15{clip-path:url(#SVGID_5_);fill:#091A08;}
	.st16{fill:#1D1D1B;}
</style>
<pattern  y="48" width="169.3" height="195.6" patternUnits="userSpaceOnUse" id="New_Pattern_Swatch_4" viewBox="0 -195.6 169.3 195.6" style="overflow:visible;">
	<g>
		<rect x="0" y="-195.6" class="st0" width="169.3" height="195.6"/>
		<path class="st1" d="M169.3-17.3v2.3l-0.9-0.5h0L143.3-2h26v2h-33.4H87.2h-6.9H31.5H0v-2h24.2L0-15v-2.3L24.3-4.1L0-46.3v-7.2
			l24.3-42.1L0-82.4v-2.3l24.2-13.1H0v-2h24.2L0-112.8v-2.3l24.3,13.2L0-144.1v-7.2l24.3-42.1L0-180.2v-2.3l24.2-13.1H0v-0.1h31.5
			L55-181.1l0.1,0l25.1-14.5h6.9l25.1,14.5l0.1,0l23.6-14.5h33.4v0.1h-26l25.1,13.6l0.9-0.5v2.3v29v7v29v2.3l-0.9-0.5h0l-25.1,13.6
			h26v2h-26l25.1,13.6l0.9-0.5v2.3v29v7V-17.3z M167.5-144.1l-24.4,42.2l24.3-13.2l0.1,0V-144.1z M53-145.4l-24.3,14.9l0,0L28-102
			L53-145.4z M29.7-101L54-115.9l0.8-28.5L29.7-101z M51.3-146.7H2.5l25.1,14.5l0.1,0L51.3-146.7z M27.7-65.3L2.5-50.8h48.8
			L27.7-65.3L27.7-65.3z M53.1-52.1L28-95.5L28.8-67l0,0L53.1-52.1z M54.8-53.1L54-81.6L29.7-96.5L54.8-53.1z M55-83.3L55-83.3
			l25.2-14.5H31.5L55-83.3z M56-81.7L56-81.7L56.8-54l24.4-42.2L56-81.7z M109-144.5l-24.3,13.2l-0.1,0v29L109-144.5z M86.3-101.3
			l25.1-14.5l0-0.1l-0.8-27.6L86.3-101.3z M108.8-146.7H58.6l25.1,13.6L108.8-146.7z M58.4-144.5l24.4,42.2v-29l-0.1,0L58.4-144.5z
			 M58.4-53l24.3-13.2l0.1,0v-29L58.4-53z M58.6-50.9h50.2L83.7-64.4h0L58.6-50.9z M109-53L84.6-95.3v29l0.1,0L109-53z M110.7-54
			l0.8-27.6l0-0.1L86.3-96.2L110.7-54z M112.3-83.3L112.3-83.3l23.6-14.5H87.2L112.3-83.3z M112.6-53.1l25.1-43.5l-24.3,15l0,0
			L112.6-53.1z M114.4-145.4l25.1,43.5l-0.8-28.5L114.4-145.4z M139.7-132.2L139.7-132.2l25.2-14.5h-48.8L139.7-132.2z M112.6-144.4
			l0.8,28.5l0,0l24.3,14.9L112.6-144.4z M114.4-52l24.3-15l0.8-28.5L114.4-52z M116.2-50.8h48.8l-25.1-14.5l-0.1,0L116.2-50.8z
			 M165.8-52.4l-24.4-42.2l-0.8,27.6l0,0.1L165.8-52.4z M141.5-102.9l24.4-42.2l-25.1,14.5l0,0.1L141.5-102.9z M143.1-193.3
			l24.4,42.2v-29l-0.1,0L143.1-193.3z M140.7-164.7l25.1,14.5l-24.4-42.2L140.7-164.7L140.7-164.7z M139.7-163.1l-23.6,14.5h48.8
			L139.7-163.1L139.7-163.1z M139.5-193.3l-25.1,43.5l24.3-15L139.5-193.3z M112.6-150.9l25.1-43.5l-24.3,15l0,0L112.6-150.9z
			 M112.3-114.2L87.2-99.7h48.8L112.3-114.2L112.3-114.2z M86.3-194l24.4,42.2l0.8-27.6l0-0.1L86.3-194z M84.6-164L84.6-164
			l24.4,13.2l-24.4-42.2V-164z M83.7-162.2l-25.1,13.6h50.2L83.7-162.2L83.7-162.2z M82.8-193.1l-24.4,42.2L82.8-164l0.1,0V-193.1z
			 M56-179.5L56-179.5l0.8,27.7L81.1-194L56-179.5z M56-115.8l25.1,14.5l-24.4-42.2L56-115.8L56-115.8z M55-114.2L31.5-99.7h48.8
			L55-114.2L55-114.2z M29.7-194.4l25.1,43.5L54-179.4L29.7-194.4z M28-193.3l0.8,28.5l0,0l24.3,15L28-193.3z M27.7-163.1L2.5-148.6
			h48.8L27.7-163.1L27.7-163.1z M1.6-150.1l25.1-14.5l0-0.1L26-192.4L1.6-150.1z M26-102.9l0.8-27.6l0-0.1L1.6-145.1L26-102.9z
			 M1.6-52.4l25.1-14.5l0-0.1L26-94.6L1.6-52.4z M26.8-32.8L1.6-47.3L26-5.1L26.8-32.8L26.8-32.8z M27.7-34.4l23.6-14.5H2.5
			L27.7-34.4L27.7-34.4z M28-4.2L53-47.6L28.8-32.7l0,0L28-4.2z M54-18.1l0.8-28.5L29.7-3.2L54-18.1z M80.2-1.9L55.1-16.4l-0.1,0
			L31.5-1.9H80.2z M81.1-3.5L56.8-45.7L56-18.1l0,0.1L81.1-3.5z M82.8-33.5L82.8-33.5L58.4-46.7L82.8-4.4V-33.5z M83.7-35.3
			l25.1-13.6H58.6L83.7-35.3z M84.6-4.4L109-46.7L84.7-33.5l-0.1,0V-4.4z M86.3-3.5L111.4-18l0-0.1l-0.8-27.6L86.3-3.5z M135.9-1.9
			l-23.6-14.5l-0.1,0L87.2-1.9H135.9z M137.7-3.2l-25.1-43.5l0.8,28.5l0,0L137.7-3.2z M139.5-4.2l-0.8-28.5l-24.3-15L139.5-4.2z
			 M139.8-34.4l25.1-14.5h-48.8L139.8-34.4L139.8-34.4z M141.5-5.1l24.4-42.2l-25.1,14.5l0,0.1L141.5-5.1z M167.5-46.4L143.1-4.1
			l24.3-13.2l0.1,0V-46.4z M167.5-82.4L167.5-82.4l-24.4-13.2l24.4,42.2V-82.4z"/>
	</g>
</pattern>
<g class="st2">
	<rect x="-95.3" y="-15.8" class="st3" width="197.8" height="118.7"/>
	<g class="st4">
		<defs>
			<rect id="SVGID_1_" x="-95.3" y="-15.8" class="st5" width="197.8" height="118.7"/>
		</defs>
		<clipPath id="SVGID_2_">
			<use xlink:href="#SVGID_1_"  style="overflow:visible;"/>
		</clipPath>
		<g class="st6">
			<line class="st7" x1="-208.3" y1="43.6" x2="3.6" y2="43.6"/>
			<line class="st7" x1="-208.3" y1="43.6" x2="3.6" y2="43.6"/>
			<line class="st7" x1="-207.5" y1="63.3" x2="3.6" y2="43.6"/>
			<line class="st7" x1="-205.1" y1="82.8" x2="3.6" y2="43.6"/>
			<line class="st7" x1="-201.1" y1="102.1" x2="3.6" y2="43.6"/>
			<line class="st7" x1="-195.5" y1="120.9" x2="3.6" y2="43.6"/>
			<line class="st7" x1="-188.4" y1="139.1" x2="3.6" y2="43.6"/>
			<line class="st7" x1="-179.9" y1="156.6" x2="3.6" y2="43.6"/>
			<line class="st7" x1="-170" y1="173.3" x2="3.6" y2="43.6"/>
			<line class="st7" x1="-158.7" y1="188.9" x2="3.6" y2="43.6"/>
			<line class="st7" x1="-146.2" y1="203.4" x2="3.6" y2="43.6"/>
			<line class="st7" x1="-132.6" y1="216.8" x2="3.6" y2="43.6"/>
			<line class="st7" x1="-117.9" y1="228.8" x2="3.6" y2="43.6"/>
			<line class="st7" x1="-102.3" y1="239.4" x2="3.6" y2="43.6"/>
			<line class="st7" x1="-86" y1="248.5" x2="3.6" y2="43.6"/>
			<line class="st7" x1="-68.9" y1="256" x2="3.6" y2="43.6"/>
			<line class="st7" x1="-51.2" y1="262" x2="3.6" y2="43.6"/>
			<line class="st7" x1="-33.2" y1="266.2" x2="3.6" y2="43.6"/>
			<line class="st7" x1="-14.9" y1="268.8" x2="3.6" y2="43.6"/>
			<line class="st7" x1="3.6" y1="269.7" x2="3.6" y2="43.6"/>
			<line class="st7" x1="22.1" y1="268.8" x2="3.6" y2="43.6"/>
			<line class="st7" x1="40.4" y1="266.2" x2="3.6" y2="43.6"/>
			<line class="st7" x1="58.4" y1="262" x2="3.6" y2="43.6"/>
			<line class="st7" x1="76.1" y1="256" x2="3.6" y2="43.6"/>
			<line class="st7" x1="93.1" y1="248.5" x2="3.6" y2="43.6"/>
			<line class="st7" x1="109.5" y1="239.4" x2="3.6" y2="43.6"/>
			<line class="st7" x1="125.1" y1="228.8" x2="3.6" y2="43.6"/>
			<line class="st7" x1="139.8" y1="216.8" x2="3.6" y2="43.6"/>
			<line class="st7" x1="153.4" y1="203.4" x2="3.6" y2="43.6"/>
			<line class="st7" x1="165.9" y1="188.9" x2="3.6" y2="43.6"/>
			<line class="st7" x1="177.2" y1="173.3" x2="3.6" y2="43.6"/>
			<line class="st7" x1="187.1" y1="156.6" x2="3.6" y2="43.6"/>
			<line class="st7" x1="195.6" y1="139.1" x2="3.6" y2="43.6"/>
			<line class="st7" x1="202.7" y1="120.9" x2="3.6" y2="43.6"/>
			<line class="st7" x1="208.3" y1="102.1" x2="3.6" y2="43.6"/>
			<line class="st7" x1="212.3" y1="82.8" x2="3.6" y2="43.6"/>
			<line class="st7" x1="214.7" y1="63.3" x2="3.6" y2="43.6"/>
			<line class="st7" x1="215.5" y1="43.6" x2="3.6" y2="43.6"/>
			<line class="st7" x1="214.7" y1="23.9" x2="3.6" y2="43.6"/>
			<line class="st7" x1="212.3" y1="4.3" x2="3.6" y2="43.6"/>
			<line class="st7" x1="208.3" y1="-14.9" x2="3.6" y2="43.6"/>
			<line class="st7" x1="202.7" y1="-33.7" x2="3.6" y2="43.6"/>
			<line class="st7" x1="195.6" y1="-52" x2="3.6" y2="43.6"/>
			<line class="st7" x1="187.1" y1="-69.5" x2="3.6" y2="43.6"/>
			<line class="st7" x1="177.2" y1="-86.1" x2="3.6" y2="43.6"/>
			<line class="st7" x1="165.9" y1="-101.7" x2="3.6" y2="43.6"/>
			<line class="st7" x1="153.4" y1="-116.3" x2="3.6" y2="43.6"/>
			<line class="st7" x1="139.8" y1="-129.6" x2="3.6" y2="43.6"/>
			<line class="st7" x1="125.1" y1="-141.6" x2="3.6" y2="43.6"/>
			<line class="st7" x1="109.5" y1="-152.2" x2="3.6" y2="43.6"/>
			<line class="st7" x1="93.1" y1="-161.3" x2="3.6" y2="43.6"/>
			<line class="st7" x1="76.1" y1="-168.9" x2="3.6" y2="43.6"/>
			<line class="st7" x1="58.4" y1="-174.8" x2="3.6" y2="43.6"/>
			<line class="st7" x1="40.4" y1="-179.1" x2="3.6" y2="43.6"/>
			<line class="st7" x1="22.1" y1="-181.6" x2="3.6" y2="43.6"/>
			<line class="st7" x1="3.6" y1="-182.5" x2="3.6" y2="43.6"/>
			<line class="st7" x1="-14.9" y1="-181.6" x2="3.6" y2="43.6"/>
			<line class="st7" x1="-33.2" y1="-179.1" x2="3.6" y2="43.6"/>
			<line class="st7" x1="-51.2" y1="-174.8" x2="3.6" y2="43.6"/>
			<line class="st7" x1="-68.9" y1="-168.9" x2="3.6" y2="43.6"/>
			<line class="st7" x1="-86" y1="-161.3" x2="3.6" y2="43.6"/>
			<line class="st7" x1="-102.3" y1="-152.2" x2="3.6" y2="43.6"/>
			<line class="st7" x1="-117.9" y1="-141.6" x2="3.6" y2="43.6"/>
			<line class="st7" x1="-132.6" y1="-129.6" x2="3.6" y2="43.6"/>
			<line class="st7" x1="-146.2" y1="-116.3" x2="3.6" y2="43.6"/>
			<line class="st7" x1="-158.7" y1="-101.7" x2="3.6" y2="43.6"/>
			<line class="st7" x1="-170" y1="-86.1" x2="3.6" y2="43.6"/>
			<line class="st7" x1="-179.9" y1="-69.5" x2="3.6" y2="43.6"/>
			<line class="st7" x1="-188.4" y1="-52" x2="3.6" y2="43.6"/>
			<line class="st7" x1="-195.5" y1="-33.7" x2="3.6" y2="43.6"/>
			<line class="st7" x1="-201.1" y1="-14.9" x2="3.6" y2="43.6"/>
			<line class="st7" x1="-205.1" y1="4.3" x2="3.6" y2="43.6"/>
			<line class="st7" x1="-207.5" y1="23.9" x2="3.6" y2="43.6"/>
			<line class="st7" x1="-208.3" y1="43.6" x2="3.6" y2="43.6"/>
		</g>
	</g>
	<pattern  id="SVGID_3_" xlink:href="#New_Pattern_Swatch_4" patternTransform="matrix(0.1371 0 0 0.1371 -7091.1553 -7152.3623)">
	</pattern>
	<rect x="-2.5" y="-1.6" class="st8" width="53" height="53"/>
</g>
<path id="logo" class="st9" d="M24,48C10.7,48,0,37.3,0,24S10.7,0,24,0s24,10.7,24,24S37.3,48,24,48z M24.7,33.8V15.2h-2.8
	l-5.3,11.6l-5.4-11.6H8.3v18.6h2.8V21.4l4.4,9.1h2.1l4.3-9.1v12.5H24.7z M40.7,26.6v-2.9h-6.8v2.4h4v1c0,1.2-0.3,2.1-0.9,2.9
	c-0.7,0.8-1.8,1.3-3,1.3c-1.1,0-2.1-0.4-2.7-1.1c-0.9-1-1.1-2.1-1.1-5.8c0-3.7,0.2-4.8,1.1-5.8c0.7-0.7,1.6-1.2,2.7-1.2
	c2.1,0,3.5,1.2,3.9,3.2h2.9c-0.5-3.2-2.8-5.8-6.8-5.8c-2,0-3.6,0.7-4.9,2c-1.8,1.8-1.8,3.9-1.8,7.5c0,3.6,0,5.7,1.8,7.5
	c1.3,1.3,3,2,4.9,2c2,0,3.7-0.6,5.1-2.1C40.3,30.5,40.7,29,40.7,26.6z"/>
<g>
	<defs>
		<rect id="SVGID_4_" width="48" height="48"/>
	</defs>
	<clipPath id="SVGID_5_">
		<use xlink:href="#SVGID_4_"  style="overflow:visible;"/>
	</clipPath>
	<g class="st10">
		<g>
			<path class="st11" d="M24,45.7C12,45.7,2.3,36,2.3,24C2.3,12,12,2.3,24,2.3C36,2.3,45.7,12,45.7,24C45.7,36,36,45.7,24,45.7z"/>
			<circle class="st12" cx="24" cy="24" r="20.4"/>
		</g>
		<path class="st13" d="M13.7,30.8c3.4-0.5,15.2-1.1,18.7-0.5c1.1-7.1,1.5-19.4-8-21.5c-2.2,1.6-5.7,6.1-6.3,7.3l-1.9-1.3
			C14.9,16.6,12.6,22,13.7,30.8z"/>
		<g>
			<path class="st14" d="M38.1,21.5c-0.2,2.8-1.2,7-2,8.2c-1-0.1-2-0.1-3-0.2c0.5-3.2,0.6-9.3,0-12.1c-0.6-2.9-3.1-7.2-6.7-8.8
				c0.4-0.1,0.8-0.2,1.2-0.3c5.9-1,7.8,2.1,8.7,4.4c-0.1-3.3-2.6-6.5-7.9-6S19.2,12.1,18,15c-1.5-1.5-4.6-4.1-5.2-4.7
				c-1.6,0.7-2.9,1.8-3.4,2.5c1.3,0.8,5.2,2.8,5.2,2.8c-1.7,2.9-2.2,10.8-1.8,14.3c-0.8,0.1-1.6,0.2-2.4,0.4
				c-1.5-2.3-1.8-6.2-1.5-8.3c-1.1,1.7-1.8,7.2-0.2,10.2c7.6-1.4,22.6-0.8,29-0.4C39.1,29.7,39.1,23.6,38.1,21.5z M16.3,16.3l2,1.3
				c0,0,2.4-5.5,6.5-8c2.9,0.4,5.2,3.1,6.7,7.4c1.1,3.1,0.7,9.1-0.1,12.5c-0.5,0-0.9,0-1.4-0.1c0.3-0.4,0.6-1,0.9-1.9
				c1.7-4.7-0.2-9.5-2.5-9.9s-5,0.8-6.2,4.4c0.6-0.7,2.3-0.9,3.3-0.6c0.9,0.3,2,1.5,2,3.4c-0.9-0.4-2.8-0.6-4.2,0.2
				c-1.2,0.7-2.1,2.6-1.9,4.2c-2.5,0.1-4.8,0.2-7,0.4C14.1,26.2,14.3,19.9,16.3,16.3z"/>
			<path class="st14" d="M30.8,33.1c0.6,0.2,1.6,0.7,2.6,1.2c-0.5,0.5-1.4,1.2-2.7,1.9c-0.7-0.8-1.6-1.3-2.4-1.5
				c-0.1,0.7,0,1.6,0.4,2.4c-1.3,0.5-2.8,0.9-4.4,1.2c-0.2-1-0.6-2-1-2.7c-0.3,0.6-0.7,1.6-0.8,2.9c-2,0.1-3.8-0.3-5.3-0.9
				c0.4-0.9,0.6-1.9,0.6-2.8c-0.6,0.3-1.4,1.1-1.9,2.2c-1.3-0.7-2.3-1.6-3-2.4c1-0.5,2.2-1.1,2.7-1.2c-1.9,0-4.6,0.2-5.5,0.8
				c0.3,0.5,0.6,0.9,1,1.5c0.1-0.1,0.5-0.3,0.9-0.6c0.8,1.4,2,2.5,3.4,3.4c-0.2,0.7-0.3,1.5-0.3,2.3c0.5-0.3,1-0.9,1.4-1.6
				c1.9,0.9,4,1.4,6.2,1.5c0.1,0.8,0.5,1.6,1,2.3c0.5-0.7,0.8-1.5,0.9-2.3c1.9-0.2,3.8-0.9,5.3-1.7c0.7,0.8,1.6,1.4,2.6,1.4
				c0-1-0.3-1.9-0.8-2.7c1.1-0.9,2-1.9,2.5-2.9c0.6,0.4,1.2,0.7,1.4,1c0.5-0.6,0.8-1,1.3-1.9C35.7,33.4,32.1,33,30.8,33.1z"/>
		</g>
		<path class="st13" d="M14.4,29.7c2.8-0.4,13.5-0.4,17-0.2c1.4-8.8-0.1-11.7-2.4-13.4c-2.1-1.6-7.3-2.3-10.7,1.5l-2-1.3
			C16.3,16.3,13.8,22.1,14.4,29.7z"/>
	</g>
	<path class="st15" d="M16.3,29.6c4.5,0.6,10.3,0.5,14.2-0.1c0.5-8.9-2.5-11.3-6.7-11.5C19.5,17.8,15.7,21.8,16.3,29.6z"/>
	<g class="st10">
		<g>
			<path class="st16" d="M17.2,28c-0.1,0-0.1,0-0.2,0c0,0-0.1,0-0.1,0c-0.1,0-0.2,0-0.3-0.1c-0.2-0.1-0.4-0.2-0.7-0.5c0,0,0,0,0,0
				c-0.1-0.2-0.2-0.4-0.1-0.7c0,0,0-0.2,0-0.2c0-0.1,0-0.2,0-0.3c0,0,0,0,0,0c0,0,0-1.8,0-1.8c0-0.1,0-0.1,0-0.2c0,0,0-0.2,0-0.2
				c0,0,0,0,0-0.1c0,0,0-0.5,0-0.5c0,0,0-0.2,0-0.3c0,0,0-0.1,0-0.1c0,0,0-0.1,0-0.1c0-0.1,0-0.3,0-0.5c0-0.1,0-0.2,0.1-0.2
				c0-0.1,0.1-0.1,0.1-0.2c0.2-0.2,0.5-0.4,0.7-0.4c0,0,0.1,0,0.1,0c0,0,0,0,0.1,0c0,0,0.1,0,0.1,0c0,0,0.1,0,0.1,0
				c0.1,0,0.1,0,0.2,0c0.1,0,0.1,0,0.2,0c0,0,0,0,0,0c0.3,0,0.5,0.2,0.6,0.5c0.1,0.1,0.1,0.2,0.1,0.4c0,0,0,0.1,0,0.1v0.3
				c0,0.1,0,0.1,0,0.2c0,0.1,0,0.1,0,0.2c0,0.1,0,0.2,0,0.3c0,0,0,0.9,0,0.9c0,0,0,0.1,0,0.1c0,0.1,0,0.1,0,0.2c0,0,0,0,0,0.1
				c0,0.1,0,0.2,0,0.3c0,0,0,0.2,0,0.2c0,0,0,0.1,0,0.1c0,0,0,0.1,0,0.1c0,0,0,0.1,0,0.1c0,0,0,0,0,0.1c0,0,0,0.1,0,0.1
				c0,0,0,0.1,0,0.1c0,0,0,0,0,0c0,0,0,0.1,0,0.1c0,0,0,0.1,0,0.1c0,0.1,0,0.1,0,0.2c0,0.1,0,0.1,0,0.2c0,0,0,0,0,0.1
				c0,0,0,0.1,0,0.1c0,0,0,0.1,0,0.1c0,0,0,0,0,0c0,0.2-0.1,0.5-0.3,0.6c-0.1,0.1-0.1,0.1-0.2,0.2c-0.1,0.1-0.3,0.2-0.6,0.2
				C17.3,28,17.2,28,17.2,28z"/>
			<path class="st16" d="M18.1,24.2c-0.1,0-0.1,0-0.2,0c0,0,0,0,0,0c-0.2,0-0.4-0.1-0.5-0.2c0,0,0,0-0.1-0.1
				c-0.1-0.1-0.2-0.3-0.3-0.5c0-0.1,0-0.3,0-0.4c0-0.1,0-0.1,0-0.1c0-0.1,0-0.1,0-0.2c0,0,0-0.1,0-0.1c0-0.2,0.1-0.5,0.3-0.6
				c0.2-0.2,0.5-0.3,0.6-0.3c0.5,0,0.8,0,1,0c0,0,0.2,0,0.2,0c0,0,0.1,0,0.1,0c0.1,0,0.2,0,0.3,0c0,0,0.1,0,0.1,0
				c0.1,0,0.3,0.1,0.4,0.1c0.2,0.1,0.4,0.2,0.5,0.4c0.1,0.1,0.1,0.3,0.1,0.4c0,0.1,0,0.1,0,0.2c0,0,0,0.1,0,0.2c0,0.1,0,0.1,0,0.2
				c0,0,0,0.1,0,0.1c0,0.2-0.1,0.4-0.2,0.6c0,0-0.1,0.1-0.2,0.1c-0.1,0.1-0.2,0.2-0.3,0.2c-0.1,0-0.2,0-0.3,0c0,0-0.1,0-0.1,0
				c-0.1,0-0.1,0-0.2,0c0,0-0.6,0-0.6,0c0,0-0.1,0-0.1,0c-0.1,0-0.1,0-0.2,0c0,0-0.2,0-0.3,0L18.1,24.2z"/>
			<path class="st16" d="M19.4,26.1c-0.1,0-0.2,0-0.3,0l-0.6,0c-0.1,0-0.1,0-0.2,0c0,0-0.1,0-0.1,0c-0.1,0-0.2,0-0.3,0
				c-0.1,0-0.3-0.1-0.4-0.2c-0.2-0.2-0.3-0.4-0.4-0.5c0,0,0-0.1,0-0.1c0-0.1,0-0.2,0-0.3c0-0.1,0-0.1,0-0.2c0-0.1,0-0.1,0-0.1
				c0,0,0-0.1,0-0.1c0-0.2,0.1-0.4,0.2-0.5c0.1-0.2,0.3-0.3,0.5-0.4c0.2-0.1,0.3-0.1,0.5-0.1c0.1,0,0.2,0,0.3,0c0.1,0,0.1,0,0.2,0
				c0,0,0.2,0,0.2,0c0,0,0.1,0,0.1,0c0.1,0,0.2,0,0.2,0c0.1,0,0.2,0,0.3,0.1c0.2,0,0.3,0.1,0.5,0.2c0.1,0.1,0.2,0.2,0.3,0.4
				c0,0,0,0.1,0,0.2c0,0.1,0,0.2,0,0.3c0,0.1,0,0.2,0,0.3c0,0.1,0,0.1,0,0.2c0,0,0,0.1,0,0.1c0,0.1,0,0.1,0,0.1
				c0,0.3-0.2,0.5-0.3,0.6c-0.1,0.1-0.3,0.2-0.4,0.2c0,0-0.1,0-0.1,0C19.5,26,19.4,26.1,19.4,26.1z"/>
			<path class="st16" d="M20,27.9c-0.1,0-0.2,0-0.3-0.1c-0.1,0-0.1,0-0.2-0.1c-0.1,0-0.2-0.1-0.3-0.2c-0.1-0.1-0.2-0.1-0.3-0.2
				c-0.1-0.1-0.3-0.3-0.4-0.4c0,0,0-0.1-0.1-0.1c0-0.1-0.1-0.1-0.1-0.2c-0.1-0.1-0.1-0.2-0.1-0.4v-0.5c0-0.1,0-0.3,0.1-0.4
				c0-0.1,0-0.1,0.1-0.2c0-0.1,0.1-0.2,0.2-0.3c0-0.1,0.1-0.1,0.1-0.2c0,0,0-0.1-0.1-0.1c0-0.1-0.1-0.2-0.1-0.3c0-0.1,0-0.2,0-0.3
				v-0.4c0-0.1,0-0.2,0.1-0.3c0-0.1,0.1-0.2,0.1-0.3c0-0.1,0.1-0.1,0.1-0.2c0,0,0-0.1,0.1-0.1c0,0,0,0,0-0.1
				c0.2-0.2,0.3-0.4,0.5-0.6c0.2-0.1,0.3-0.2,0.6-0.3c0,0,0.1,0,0.2,0c0,0,0.1,0,0.2-0.1c0.1,0,0.2,0,0.2,0h0.3c0.1,0,0.3,0,0.4,0.1
				c0.1,0,0.2,0.1,0.3,0.2l0.1,0.1c0.1,0.1,0.2,0.3,0.2,0.5v0.3c0,0.1,0,0.2-0.1,0.3c-0.1,0.2-0.2,0.3-0.4,0.5
				c0.1,0.1,0.2,0.2,0.3,0.3c0,0.1,0.1,0.1,0.1,0.2c0,0,0,0.1,0,0.1c0,0.1,0,0.2,0,0.3c0,0,0,0,0,0.1c0,0,0,0.1,0,0.1v0.3
				c0,0.2-0.1,0.3-0.1,0.5c0,0-0.1,0.1-0.1,0.2c0.2,0.2,0.3,0.5,0.3,0.8c0,0,0,0.1,0,0.2c0,0.1,0,0.1,0,0.2c0,0,0,0.1,0,0.2l0,0.1
				c0,0.1-0.1,0.2-0.1,0.3c-0.1,0.2-0.3,0.3-0.5,0.4c-0.1,0-0.2,0-0.3,0C20.8,27.9,20,27.9,20,27.9z"/>
			<path class="st16" d="M21.6,28c-0.2,0-0.5-0.1-0.7-0.3c-0.1-0.1-0.2-0.2-0.2-0.3c0-0.1-0.1-0.2-0.1-0.4c0-0.1,0-0.1,0-0.2
				c0-0.1,0-0.2,0-0.2c0-0.2,0.1-0.5,0.2-0.6c0,0.1-0.1,0.1-0.1,0.1c0-0.1,0.1-0.2,0.1-0.2c0,0-0.1-0.1-0.1-0.1l-0.1-0.1
				c-0.1-0.1-0.1-0.3-0.1-0.4v-0.7c0-0.2,0.1-0.4,0.2-0.5c0,0,0.1-0.1,0.1-0.2c-0.1-0.1-0.1-0.1-0.2-0.2c-0.1-0.2-0.2-0.4-0.2-0.6
				c0,0,0-0.1,0-0.1c0-0.1,0-0.2,0-0.3c0-0.1,0-0.3,0.1-0.4c0.1-0.2,0.2-0.4,0.4-0.4c0.2-0.1,0.4-0.1,0.5-0.1c0.1,0,0.2,0,0.3,0
				l0.2,0c0,0,0.1,0,0.1,0c0,0,0.2,0.1,0.4,0.2c0.1,0,0.2,0.1,0.3,0.2c0.2,0.1,0.3,0.3,0.5,0.5c0.1,0.1,0.1,0.2,0.1,0.3
				c0,0,0,0.1,0.1,0.2c0,0,0,0,0,0c0.1,0.2,0.1,0.3,0.2,0.5c0,0.2,0.1,0.3,0.1,0.4c0,0.1,0,0.2,0,0.2l0,0.1c0,0,0,0.1,0,0.1
				c0,0.1,0,0.3-0.1,0.4c0,0.1,0.1,0.1,0.1,0.2c0.1,0.1,0.1,0.2,0.1,0.3C24,25.8,24,26,24,26.1c0,0.1,0,0.1,0,0.2c0,0.1,0,0.1,0,0.2
				c0,0.1-0.1,0.2-0.1,0.3c0,0.1-0.1,0.2-0.2,0.3c0,0.1-0.1,0.1-0.1,0.2c0,0,0,0.1-0.1,0.1c0,0-0.1,0.1-0.2,0.2
				c-0.1,0-0.1,0.1-0.2,0.1c0,0-0.1,0.1-0.2,0.1c-0.1,0.1-0.2,0.1-0.4,0.1c-0.1,0-0.1,0-0.2,0h-0.4C21.8,27.9,21.7,28,21.6,28z"/>
			<path class="st16" d="M23.2,28c-0.1,0-0.1,0-0.2,0h-0.2c-0.1,0-0.1,0-0.2,0c-0.1,0-0.2,0-0.3,0c-0.3,0-0.5-0.2-0.6-0.4
				c0-0.1-0.1-0.2-0.1-0.3c0-0.1,0-0.2,0-0.3c0-0.2,0-0.3,0.1-0.4c0-0.1,0-0.1,0.1-0.2c0-0.1,0.1-0.2,0.2-0.3c0-0.1,0.1-0.2,0.1-0.3
				c0-0.1,0.1-0.1,0.1-0.2c0-0.1,0.1-0.1,0.1-0.2c0,0,0-0.1,0.1-0.1l0-0.1c0-0.1,0-0.2,0.1-0.2c0,0,0-0.1,0-0.1c0-0.1,0-0.1,0.1-0.2
				c0-0.1,0.1-0.2,0.1-0.3c0,0,0-0.1,0.1-0.1c0,0,0-0.1,0.1-0.1c0-0.1,0.1-0.2,0.1-0.3c0-0.1,0.1-0.3,0.2-0.4
				c0.2-0.2,0.4-0.4,0.7-0.4c0.2,0,0.4,0.1,0.6,0.2c0.2,0.2,0.4,0.4,0.4,0.6c0,0,0,0.1,0,0.1c0.1,0.2,0.2,0.3,0.3,0.5
				c0.1,0.2,0.1,0.3,0.1,0.5c0,0.2,0,0.3-0.1,0.4c0,0.1-0.1,0.2-0.1,0.2c0,0,0,0.1-0.1,0.1c0,0,0,0.1,0,0.1c0,0.1-0.1,0.3-0.2,0.4
				c0,0,0,0.1,0,0.1l0,0.1c0,0.1,0,0.1-0.1,0.2c0,0.1-0.1,0.3-0.2,0.5c0,0.1-0.1,0.3-0.3,0.4c-0.1,0.1-0.3,0.3-0.5,0.3l0,0
				C23.4,27.9,23.3,28,23.2,28z"/>
			<path class="st16" d="M25.9,28c-0.1,0-0.2,0-0.4-0.1c-0.1,0-0.1,0-0.2-0.1c-0.2-0.1-0.3-0.2-0.4-0.4c0,0,0-0.1-0.1-0.1h0
				c-0.1,0-0.1,0-0.2,0h-0.3c-0.2,0-0.4-0.1-0.5-0.2c-0.1-0.1-0.2-0.2-0.3-0.4c0-0.1-0.1-0.3-0.1-0.4c0-0.2,0.1-0.4,0.1-0.6
				c0,0,0,0,0.1-0.1c0-0.1,0-0.1,0-0.2c0-0.2,0.1-0.3,0.2-0.5c0,0,0,0,0-0.1c0,0,0,0,0,0c0,0,0-0.1-0.1-0.3c0,0,0,0,0-0.1
				c-0.1-0.1-0.1-0.2-0.1-0.3l0-0.1c0,0,0-0.1-0.1-0.1c-0.1-0.1-0.1-0.2-0.1-0.3c-0.1-0.2-0.1-0.3-0.2-0.4l-0.1-0.1
				c-0.2-0.3-0.2-0.5-0.2-0.7c0-0.2,0.1-0.4,0.2-0.6c0.1-0.2,0.5-0.4,0.7-0.4h0.6c0.1,0,0.2,0,0.2,0c0.1,0,0.2,0,0.3,0
				c0.1,0,0.2,0.1,0.3,0.1c0.3,0.2,0.5,0.4,0.6,0.8c0,0,0,0.1,0,0.1c0,0.1,0.1,0.2,0.1,0.3c0,0.1,0,0.1,0,0.2l0,0l0,0.1
				c0,0.1,0.1,0.1,0.1,0.2c0,0,0,0.1,0,0.1c0,0,0.1,0.1,0.1,0.2c0,0.1,0.1,0.3,0.1,0.3c0,0.1,0.1,0.1,0.1,0.2c0,0.1,0.1,0.2,0.1,0.3
				c0,0,0,0.1,0,0.2c0,0.1,0.1,0.2,0.1,0.3c0.1,0.1,0.1,0.3,0.2,0.5c0,0,0.1,0.1,0.1,0.2c0.1,0.2,0.2,0.4,0.3,0.6c0,0.1,0,0.1,0,0.2
				l0,0.1c0.1,0.2,0.2,0.4,0.2,0.6c0,0.2-0.1,0.4-0.3,0.7c-0.1,0.1-0.2,0.1-0.3,0.2c-0.1,0.1-0.2,0.1-0.4,0.1h-0.2
				c-0.1,0-0.1,0-0.2,0H25.9z"/>
			<path class="st16" d="M27.7,28c-0.4,0-0.8-0.2-1-0.6c0,0,0-0.1,0-0.1L26.6,27c0,0,0,0,0,0c-0.1-0.1-0.1-0.2-0.1-0.3
				c0-0.1,0-0.1,0-0.2c0-0.1-0.1-0.1-0.1-0.2c-0.1-0.1-0.1-0.2-0.1-0.3c0-0.1-0.1-0.2-0.1-0.3c-0.1-0.1-0.1-0.2-0.2-0.3
				c0,0,0-0.1,0-0.1c0-0.1,0-0.2-0.1-0.3c0,0,0-0.1,0-0.1c0,0,0-0.1-0.1-0.1l0,0l-0.2-0.3c0-0.1-0.1-0.1-0.1-0.2c0,0,0-0.1-0.1-0.1
				c0,0-0.1-0.1-0.1-0.2c0,0-0.1-0.2-0.2-0.4c0-0.1,0-0.1,0-0.2c0-0.1,0-0.1-0.1-0.2c0,0,0,0,0-0.1c-0.1-0.1-0.1-0.3-0.1-0.4
				c0-0.1,0-0.2,0-0.2c0-0.2,0.1-0.3,0.3-0.5c0,0,0.1-0.1,0.2-0.1c0.1-0.1,0.3-0.1,0.4-0.1H26c0.1,0,0.1,0,0.2,0h0.3
				c0.2,0,0.3,0,0.4,0.1c0.1,0,0.3,0.1,0.5,0.4c0,0.1,0.1,0.2,0.1,0.2c0,0,0.1,0.1,0.1,0.1c0,0,0.2,0.3,0.2,0.3c0,0,0,0.1,0.1,0.1
				c0.1,0.1,0.1,0.2,0.1,0.3c0,0.1,0,0.2,0,0.3c0,0,0,0,0,0c0,0,0,0.1,0,0.1c0.1,0.1,0.1,0.2,0.1,0.3c0,0.1,0.1,0.2,0.1,0.3
				c0,0.1,0.1,0.2,0.1,0.2c0,0,0.1,0.1,0.1,0.1c0,0.1,0.1,0.1,0.1,0.2c0,0,0,0.1,0,0.2c0.1,0.1,0.1,0.3,0.1,0.4c0,0,0,0,0,0
				c0.1,0.1,0.1,0.2,0.2,0.4c0,0,0,0.1,0.1,0.3l0.1,0.2c0.2,0.3,0.2,0.5,0.2,0.8c0,0.2-0.1,0.4-0.2,0.6c-0.1,0.3-0.4,0.4-0.7,0.4
				h-0.6C27.9,28,27.8,28,27.7,28z"/>
			<path class="st16" d="M28.9,26.6c-0.2,0-0.4,0-0.6-0.2c-0.1-0.1-0.2-0.2-0.3-0.4c0,0,0-0.1-0.1-0.3c0,0-0.1-0.1-0.1-0.2
				c0-0.1-0.1-0.1-0.1-0.2c0,0,0-0.1-0.1-0.1c-0.1-0.2-0.1-0.3-0.1-0.5c0-0.2,0-0.4,0.2-0.7c0-0.1,0.1-0.1,0.1-0.2c0,0,0-0.1,0-0.1
				c0-0.1,0.1-0.2,0.1-0.3c0,0,0-0.1,0.1-0.1c0,0,0-0.1,0-0.2c0-0.1,0-0.1,0.1-0.2c0-0.1,0.1-0.2,0.1-0.3c0.1-0.2,0.2-0.4,0.3-0.6
				c0.3-0.3,0.6-0.4,0.8-0.4c0.1,0,0.1,0,0.2,0h0.3c0.1,0,0.1,0,0.2,0c0.1,0,0.2,0,0.3,0c0.3,0.1,0.6,0.4,0.6,0.8
				c0-0.2-0.1-0.4-0.1-0.4c0.1,0.1,0.1,0.2,0.2,0.4c0,0,0,0.1,0,0.3c0,0.1,0,0.2-0.1,0.4c0,0.1-0.1,0.3-0.2,0.4c0,0,0,0.1-0.1,0.1
				l-0.2,0.4c0,0,0,0.1-0.1,0.1c0,0.1-0.1,0.1-0.1,0.3c0,0.1,0,0.2-0.1,0.3c0,0,0,0.1,0,0.1c-0.1,0.2-0.2,0.5-0.4,0.8c0,0,0,0,0,0
				c0,0.1,0,0.1-0.1,0.2c-0.1,0.1-0.1,0.2-0.1,0.2c0,0.1,0,0.1-0.1,0.2C29.5,26.4,29.2,26.6,28.9,26.6z"/>
		</g>
		<g>
			<path class="st12" d="M17.3,22.4C17.3,22.4,17.3,22.5,17.3,22.4C17.4,22.5,17.4,22.5,17.3,22.4c0.1,0,0.1,0,0.1,0c0,0,0,0,0,0
				c0,0,0,0,0,0l0,0c0.1,0,0.1,0.1,0.1,0.1c0,0,0,0.1,0,0.4c0,0,0,0,0,0c0,0,0,0,0,0c0,0,0,0.1-0.1,0.1c0,0,0,0,0,0v0.1c0,0,0,0,0,0
				c0,0,0,0,0,0c0,0,0,0,0,0c0,0,0,0,0,0c0,0,0,0,0.1,0.1c0,0,0,0-0.1,0.1c0,0,0,0,0,0l0,0c0,0.1,0,0.1,0,0.1c0,0,0,0,0,0
				c0,0,0,0,0,0v0.9c0,0,0,0,0,0.1c0,0,0,0.1,0,0.1c0,0,0,0,0,0.1c0,0,0,0.1,0,0.1c0,0,0,0,0,0c0,0,0,0,0,0l0,0c0,0,0,0,0,0.1
				c0,0.1,0,0.1,0,0.1c0,0,0,0,0,0.1c0,0,0,0,0,0c0,0,0,0,0,0c0,0,0,0.1,0,0.1c0,0,0,0,0,0c0,0,0,0,0,0c0,0,0,0,0,0c0,0,0,0,0,0.1
				c0,0,0,0,0,0.1c0,0,0,0,0,0c0,0,0,0,0,0c0,0,0,0,0,0c0,0,0,0,0,0c0,0,0,0,0,0c0,0,0,0,0,0c0,0,0,0,0,0c0,0,0,0,0,0c0,0,0,0,0,0
				c0,0,0,0,0,0c0,0,0,0,0,0.1c0,0,0,0,0,0c0,0,0,0,0,0c0,0,0,0,0,0c0,0,0,0,0,0c0,0,0,0,0,0c0,0,0,0,0,0c0,0,0,0,0,0c0,0,0,0,0,0
				c0,0,0,0,0,0c0,0,0,0,0,0c0,0,0,0,0,0c0,0,0,0,0,0c0,0,0,0,0,0s0,0,0,0.1c0,0,0,0,0,0.1c0,0,0,0,0,0c0,0,0,0,0,0c0,0,0,0,0,0.1
				c0,0,0,0,0,0.1c0,0,0,0.1,0,0.1c0,0,0,0,0,0c0,0,0,0,0,0c0,0,0,0,0,0.1c0,0,0,0.1,0,0.1c0,0,0,0,0,0.1c0,0,0,0,0,0.1c0,0,0,0,0,0
				c0,0,0,0,0,0c0,0,0,0-0.1,0.1c0,0-0.1,0.1-0.1,0.1c0,0,0,0-0.1,0c0,0,0,0,0,0c0,0,0,0,0,0c0,0,0,0-0.1,0c0,0,0,0,0,0c0,0,0,0,0,0
				c0,0,0,0,0,0c0,0,0,0,0,0c0,0,0,0-0.1,0c0,0-0.1,0-0.1,0c0,0,0,0,0,0c0,0,0,0,0,0c0,0,0,0,0,0c0,0,0,0,0,0c0,0,0,0-0.1,0
				c0,0,0,0,0,0c0,0,0,0,0,0c0,0,0,0,0,0c0,0,0,0,0,0c-0.1,0-0.1-0.1-0.2-0.2c0,0,0,0-0.1-0.1c0-0.1,0-0.2,0-0.2c0,0,0,0,0,0
				c0,0,0,0,0,0c0,0,0,0,0,0c0,0,0,0,0,0c0,0,0,0,0,0c0,0,0,0,0,0c0,0,0,0,0,0c0,0,0,0,0,0c0,0,0,0,0,0c0,0,0-0.1,0-0.1
				c0-0.1,0-0.2,0-0.3l0-1.7c0,0,0,0,0-0.1c0,0,0-0.1,0,0c0,0,0,0,0,0c0,0,0-0.1,0-0.1c0,0,0,0,0,0c0,0,0,0,0,0c0,0,0-0.1,0-0.1
				c0,0,0,0,0,0c0,0,0,0,0,0c0,0,0,0,0,0c0,0,0,0,0,0c0,0,0,0,0,0c0,0,0,0,0,0c0,0,0,0,0,0c0,0,0,0,0,0c0,0,0,0,0,0c0,0,0,0,0,0
				c0,0,0,0,0,0c0,0,0,0,0,0c0,0,0,0,0,0c0,0,0,0,0,0c0,0,0,0,0,0c0,0,0,0,0,0c0,0,0,0,0,0c0,0,0,0,0,0c0,0,0,0,0-0.1c0,0,0,0,0-0.1
				c0,0,0,0,0,0c0,0,0-0.1,0-0.1c0,0,0,0,0,0c0,0,0,0,0,0c0,0,0,0,0,0c0,0,0,0,0,0c0,0,0,0,0,0c0,0,0,0,0,0c0,0,0,0,0,0s0,0,0,0
				c0,0,0,0,0,0c0,0,0,0,0,0c0,0,0,0,0,0l0,0c0,0,0,0,0-0.1l0,0c0,0,0,0,0,0c0,0,0-0.1,0-0.1c0,0,0,0,0,0c0,0,0-0.1,0.1-0.1
				c0,0,0.1-0.1,0.1-0.1c0,0,0,0,0,0c0,0,0,0,0,0c0,0,0,0,0,0c0,0,0,0,0,0c0,0,0,0,0,0c0,0,0,0,0,0c0,0,0,0,0.1,0c0,0,0.1,0,0.1,0
				c0,0,0.1,0,0.1,0c0,0,0,0,0.1,0C17.2,22.5,17.2,22.5,17.3,22.4C17.3,22.5,17.3,22.4,17.3,22.4z"/>
			<path class="st12" d="M19.6,22.4C19.6,22.4,19.6,22.4,19.6,22.4C19.6,22.4,19.6,22.4,19.6,22.4C19.7,22.4,19.7,22.4,19.6,22.4
				c0.1,0,0.1,0,0.1,0c0,0,0,0,0.1,0c0,0,0.1,0,0.1,0c0,0,0,0.1,0,0.1c0,0,0,0,0,0c0,0,0,0,0,0c0,0,0,0,0,0c0,0,0,0,0,0
				c0,0,0,0,0,0.1c0,0,0,0.1,0,0.2c0,0.1,0,0.1,0,0.2c0,0,0,0,0,0c0,0,0,0,0,0c0,0,0,0,0,0c0,0,0,0,0,0c0,0,0,0,0,0.1
				c0,0-0.1,0.1-0.2,0.1c0,0,0,0,0,0c0,0,0,0,0,0c0,0,0,0,0,0c0,0-0.1,0,0,0h-0.1c0,0,0,0,0,0c0,0,0,0-0.1,0c0,0,0,0-0.1,0
				c0,0,0,0,0,0c0,0,0,0,0,0c0,0,0,0,0,0c0,0,0,0,0,0c0,0,0,0,0,0c0,0,0,0,0,0c0,0,0,0,0,0c0,0,0,0,0,0c0,0,0,0,0,0c0,0,0,0,0,0
				s0,0,0,0c0,0,0,0,0,0c0,0,0,0,0,0c0,0,0,0,0,0c0,0,0,0,0,0c0,0,0,0,0,0c0,0,0,0,0,0c0,0,0,0,0,0c0,0,0,0,0,0c0,0,0,0,0,0
				c0,0,0,0,0,0c0,0,0,0,0,0c0,0,0,0,0,0c0,0,0,0,0,0c0,0,0,0,0,0c0,0,0,0-0.1,0c0,0-0.1,0-0.1,0c0,0,0,0,0,0c0,0,0,0,0,0
				c0,0,0,0-0.1,0c0,0,0,0,0,0c-0.1,0-0.2,0-0.3,0c-0.2,0-0.2,0-0.2,0c0,0,0,0,0,0c0,0,0,0,0,0c0,0,0,0,0-0.1c0,0,0,0,0,0
				c0,0,0,0,0,0c0,0,0-0.1,0-0.1c0,0,0,0,0,0c0,0,0,0,0,0c0,0,0,0,0-0.1c0,0,0,0,0-0.1c0,0,0-0.1,0-0.1c0-0.1,0-0.1,0-0.1
				c0,0,0,0,0,0c0,0,0,0,0,0c0,0,0,0,0,0c0,0,0,0,0,0c0,0,0,0,0-0.1c0,0,0.1,0,0.1,0c0.5,0,0.8,0,1,0h0.3c0,0,0,0,0,0c0,0,0,0,0,0
				c0,0,0,0,0,0c0,0,0,0,0,0c0,0,0,0,0,0c0,0,0,0,0,0c0,0,0,0,0,0C19.5,22.4,19.5,22.4,19.6,22.4z"/>
			<path class="st12" d="M19.4,24.1c0,0,0.1,0,0.1,0.1c0,0,0,0,0.1,0c0,0,0,0,0.1,0.1c0,0,0,0.1,0,0.1c0,0,0,0.1,0,0.1
				c0,0,0,0.1,0,0.1c0,0,0,0,0,0v0.4c0,0,0,0,0,0c0,0,0,0,0,0c0,0,0,0,0,0c0,0,0,0,0,0c0,0,0,0,0,0c0,0,0,0,0,0c0,0,0,0,0,0.1
				c0,0,0,0,0,0.1c0,0,0,0-0.1,0.1c0,0,0,0-0.1,0c0,0-0.1,0-0.1,0c0,0,0,0-0.1,0c0,0,0,0,0,0c0,0,0,0,0,0c0,0,0,0,0,0c0,0,0,0,0,0
				c0,0,0,0-0.1,0c0,0,0,0,0,0l-0.9,0c0,0,0,0,0,0c0,0,0,0,0,0c0,0,0,0,0,0c0,0,0,0,0,0c0,0,0,0,0,0c0,0,0,0,0,0c0,0,0,0-0.1,0
				c0,0-0.1,0-0.1,0c-0.1,0-0.1-0.1-0.1-0.1c0,0,0-0.1,0-0.2c0-0.1,0-0.2,0-0.2c0-0.1,0-0.2,0-0.2c0-0.1,0-0.1,0-0.1c0,0,0,0,0,0
				c0,0,0,0,0,0c0-0.1,0-0.1,0.1-0.1c0.1,0,0.2,0,0.3,0c0,0,0,0,0,0c0,0,0,0,0,0h0.4c0,0,0,0,0,0c0,0,0,0,0,0c0,0,0,0,0,0
				c0,0,0,0,0,0c0,0,0,0,0,0c0,0,0,0,0,0c0,0,0,0,0,0c0,0,0,0,0,0c0,0,0,0,0,0c0,0,0,0,0,0c0,0,0,0,0,0c0,0,0,0,0,0c0,0,0,0,0,0
				c0,0,0.1,0,0.2,0c0,0,0,0,0,0C19.3,24.2,19.3,24.2,19.4,24.1C19.3,24.2,19.3,24.2,19.4,24.1C19.4,24.2,19.4,24.1,19.4,24.1
				C19.4,24.1,19.4,24.1,19.4,24.1z"/>
			<path class="st12" d="M20.4,22.4h0.3c0,0,0.1,0,0.2,0c0,0,0.1,0.1,0.1,0.1v0.3c-0.1,0.2-0.2,0.3-0.4,0.4c-0.1,0-0.1,0.2-0.1,0.5
				c0,0.2,0,0.3,0,0.3c0,0,0.1,0.1,0.1,0.1c0,0,0,0,0.1,0c0,0,0.1,0,0.2,0.1c0.1,0,0.1,0.1,0.2,0.1c0,0,0,0,0,0.1c0,0,0,0.1,0,0.1
				c0,0,0,0,0,0.1c0,0,0,0,0,0.1c0,0,0,0,0,0.1v0.3c0,0-0.1,0.1-0.1,0.1c-0.1,0-0.1,0.1-0.2,0.1c-0.2,0.1-0.2,0.3-0.2,0.4
				c0,0,0,0,0,0.1c0,0,0,0.1,0,0.1c0.1,0.1,0.2,0.2,0.3,0.3c0,0,0,0,0.1,0c0.1,0.1,0.2,0.2,0.2,0.3c0,0,0,0,0,0.1c0,0.1,0,0.1,0,0.1
				c0,0,0,0,0,0.1c0,0,0,0.1,0,0.1c0,0,0,0,0,0.1c0,0.1,0,0.1,0,0.1c0,0-0.1,0.1-0.1,0.1l-0.9,0c-0.1,0-0.1-0.1-0.2-0.1
				c-0.1,0-0.2-0.1-0.3-0.2c0,0-0.1-0.1-0.2-0.2c-0.1-0.1-0.2-0.1-0.2-0.2c0-0.1-0.1-0.1-0.1-0.3v-0.5c0,0,0,0,0-0.1c0,0,0,0,0-0.1
				c0-0.1,0-0.2,0.1-0.3c0,0,0,0,0.1-0.1c0-0.1,0-0.1,0.1-0.1c0.1-0.1,0.1-0.1,0.2-0.2c0,0,0.1-0.1,0.1-0.1c0.1,0,0.1-0.1,0.1-0.1
				c0,0,0,0,0,0c0,0-0.1-0.1-0.1-0.1c0,0,0,0,0,0c0,0-0.1-0.1-0.2-0.2c0-0.1-0.1-0.1-0.1-0.3c0,0,0-0.1,0-0.1v-0.4c0,0,0,0,0,0
				c0,0,0,0,0,0c0-0.1,0-0.1,0.1-0.2c0-0.1,0.1-0.1,0.1-0.2c0,0,0,0,0.1-0.1c0,0,0-0.1,0-0.1c0.1-0.1,0.2-0.2,0.3-0.3
				c0.1-0.1,0.2-0.1,0.3-0.2C20.2,22.5,20.3,22.4,20.4,22.4z"/>
			<path class="st12" d="M21.6,22.4c0,0,0.1,0,0.1,0c0,0,0.1,0,0.2,0c0,0,0.1,0.1,0.3,0.2c0,0,0.1,0.1,0.2,0.1
				c0.1,0.1,0.3,0.3,0.4,0.4c0,0.1,0.1,0.2,0.1,0.3c0,0,0,0,0.1,0.1c0,0,0,0.1,0.1,0.2c0,0.1,0,0.2,0,0.2c0,0,0,0.1-0.1,0.3
				c0,0,0,0.1,0,0.2c0,0.1-0.1,0.2-0.2,0.3c0,0-0.1,0-0.1,0.1c0,0,0,0,0,0.1c0,0,0,0.1,0,0.1c0,0,0.1,0.1,0.2,0.1
				c0,0,0.1,0.1,0.1,0.1c0,0.1,0.1,0.2,0.2,0.3c0,0,0,0.1,0.1,0.2c0,0.2,0.1,0.4,0.1,0.5c0,0,0,0.1,0,0.1c0,0,0,0.1,0,0.1
				c-0.1,0.1-0.1,0.2-0.2,0.3c0,0-0.1,0.1-0.1,0.1c0,0-0.1,0.1-0.1,0.1c-0.1,0-0.1,0.1-0.3,0.1c0,0-0.1,0-0.2,0h-0.5
				c0,0-0.1,0-0.1,0c-0.1,0-0.1,0-0.1,0c-0.1,0-0.1,0-0.2-0.1c0,0,0,0,0-0.1c0,0,0-0.1,0-0.1c0,0,0,0,0,0c0,0,0,0,0,0v-0.3
				c0,0,0-0.1,0-0.1c0-0.1,0-0.1,0-0.1c0,0,0-0.1,0.1-0.1c0.1,0,0.2-0.1,0.3-0.1c0,0,0-0.1,0.1-0.1c0,0,0.1-0.1,0.1-0.1
				c0,0,0-0.1,0-0.1c0,0,0,0,0-0.1c0,0,0-0.1,0-0.2c0-0.1-0.1-0.1-0.1-0.1c0,0-0.1,0-0.2,0c0,0,0,0-0.1-0.1c0,0,0-0.1-0.1-0.1v-0.7
				c0.1-0.1,0.1-0.2,0.3-0.3c0,0,0.1-0.1,0.2-0.1c0,0,0-0.1,0-0.1c0,0,0-0.1,0.1-0.1c0,0,0-0.1,0-0.1c0,0,0,0-0.1-0.2
				c0,0,0-0.1,0-0.2c0,0,0,0,0-0.1c0,0-0.1,0-0.2,0c0,0-0.1,0-0.1-0.1c0-0.1-0.1-0.1-0.1-0.2c0,0,0,0,0-0.1c0-0.1,0-0.2,0-0.3
				c0,0,0,0,0-0.1c0,0,0,0,0,0C21.5,22.4,21.6,22.4,21.6,22.4z"/>
			<path class="st12" d="M23.7,23.8C23.7,23.8,23.7,23.8,23.7,23.8c0.1,0.1,0.2,0.1,0.2,0.2c0,0,0,0.1,0,0.2c0,0,0,0,0,0.1
				c0,0,0,0,0,0.1c0.1,0.1,0.2,0.3,0.3,0.4c0,0.1,0,0.1,0,0.2c0,0.1,0,0.1,0,0.2c0,0.1,0,0.1-0.1,0.2c0,0,0,0-0.1,0.1c0,0,0,0,0,0.1
				c0,0-0.1,0.1-0.1,0.1c0,0,0,0.1,0,0.1c0,0-0.1,0.1-0.1,0.1c0,0.1-0.1,0.2-0.1,0.3c0,0,0,0.1,0,0.2c0,0.1-0.1,0.3-0.2,0.5
				c0,0,0,0.1-0.1,0.1c0,0-0.1,0.1-0.1,0.1c0,0,0,0-0.1,0c0,0-0.1,0-0.1,0c0,0,0,0,0,0c0,0,0,0,0,0h-0.5c0,0,0,0,0,0c0,0,0,0,0,0
				c0,0,0,0-0.1,0c0,0-0.1,0-0.1,0c0,0,0,0-0.1-0.1c0,0,0-0.1,0-0.1c0-0.1,0-0.1,0.1-0.2c0,0,0,0,0-0.1c0-0.1,0.1-0.2,0.2-0.3
				c0,0,0,0,0-0.1c0,0,0-0.1,0.1-0.3c0,0,0-0.1,0.1-0.1c0-0.1,0.1-0.2,0.1-0.3c0,0,0,0,0-0.1c0-0.1,0-0.2,0.1-0.3
				c0,0,0.1-0.1,0.1-0.2c0,0,0,0,0-0.1c0,0,0,0,0-0.1c0-0.1,0-0.1,0.1-0.3c0,0,0,0,0.1,0c0,0,0-0.1,0-0.1c0,0,0-0.1,0.1-0.1
				c0,0,0-0.1,0-0.1c0.1-0.1,0.1-0.2,0.1-0.4C23.6,23.8,23.7,23.8,23.7,23.8z"/>
			<path class="st12" d="M24.7,22.4C24.8,22.4,24.8,22.4,24.7,22.4c0.1,0,0.2,0,0.2,0c0.1,0,0.1,0.1,0.1,0.2c0,0.1,0,0.1,0,0.2
				c0,0.1,0.1,0.2,0.1,0.4c0,0,0,0.1,0,0.2c0,0,0,0.1,0.1,0.2c0,0.1,0,0.1,0.1,0.3c0,0,0,0,0,0.1c0,0.1,0.1,0.2,0.1,0.3
				c0,0,0,0,0,0.1c0,0.1,0.1,0.1,0.2,0.3c0,0.1,0,0.2,0.1,0.4c0,0.1,0.1,0.2,0.2,0.3c0,0.1,0.1,0.3,0.2,0.5c0,0,0.1,0.1,0.1,0.2
				c0,0.1,0.1,0.3,0.2,0.5c0,0,0,0.1,0,0.1c0,0.1,0.1,0.1,0.1,0.2c0.1,0.1,0.1,0.2,0.1,0.2c0,0,0,0.1-0.1,0.1c0,0,0,0-0.1,0h-0.4
				c0,0,0,0,0,0c0,0,0,0,0,0h-0.3c0,0,0,0,0,0c0,0-0.1,0-0.1,0c0,0-0.1-0.1-0.1-0.1c0,0,0,0-0.1-0.1c0-0.1,0-0.1-0.1-0.2
				c0,0,0-0.1-0.1-0.1c-0.1-0.1-0.1-0.1-0.1-0.1h-0.6c0,0,0,0,0,0c0,0,0,0,0,0h-0.3c0,0-0.1-0.1-0.1-0.1c0,0,0-0.1,0-0.1
				c0-0.1,0-0.1,0-0.1c0,0,0-0.1,0.1-0.1c0,0,0.1-0.1,0.1-0.1c0,0,0-0.1,0-0.1c0,0,0-0.1,0-0.1c0-0.1,0.1-0.2,0.1-0.2
				c0,0,0.1,0,0.1,0c0,0,0.1,0,0.1-0.1c0,0,0.1,0,0.1,0c0,0,0.1-0.1,0.1-0.1c0-0.1,0-0.1,0-0.1c0,0,0,0-0.1-0.1c0,0,0,0,0-0.1
				c0,0,0,0,0,0c0,0,0-0.1-0.1-0.3c0,0-0.1-0.1-0.1-0.3c0,0,0-0.1-0.1-0.1c0-0.1,0-0.2-0.1-0.4c0,0,0,0,0,0c0,0,0-0.1-0.1-0.2
				c0-0.1,0-0.1-0.1-0.2c-0.1-0.1-0.1-0.2-0.1-0.2c0,0,0-0.1,0-0.1C24,23.1,24,23,23.9,22.9c-0.1-0.1-0.1-0.2-0.1-0.3
				c0,0,0-0.1,0-0.1c0,0,0-0.1,0.1-0.1h0.7C24.7,22.4,24.7,22.4,24.7,22.4z"/>
			<path class="st12" d="M26.3,22.4h0.3c0,0,0.1,0,0.1,0c0.1,0,0.1,0,0.1,0.1c0,0,0,0,0.1,0.1c0,0,0,0.1,0,0.1c0,0,0,0,0.1,0.1
				c0,0.1,0.1,0.2,0.1,0.3c0,0,0,0,0,0.1c0,0,0,0,0,0c0.1,0.1,0.1,0.2,0.1,0.3c0,0.1,0,0.2,0,0.3c0,0,0,0.1,0.1,0.1
				c0.1,0.1,0.1,0.1,0.1,0.1c0,0,0,0.1,0,0.2c0,0,0,0,0,0.1c0,0,0,0.1,0,0.1c0.1,0.1,0.1,0.2,0.2,0.4c0,0,0.1,0.1,0.1,0.1
				c0,0,0,0.1,0.1,0.3c0,0,0,0.1,0,0.1c0,0,0,0.1,0,0.1c0,0,0,0,0,0c0,0,0,0,0,0c0,0.1,0,0.2,0.1,0.2c0,0,0,0.1,0.1,0.2
				c0,0.1,0.1,0.2,0.2,0.5c0.1,0.1,0.1,0.2,0.2,0.3c0.1,0.1,0.1,0.3,0.1,0.3c0,0,0,0.1-0.1,0.2h-0.7c0,0-0.1,0-0.1,0
				c-0.1,0-0.2,0-0.3-0.1c0-0.1-0.1-0.2-0.1-0.4c0,0-0.1-0.1-0.1-0.1c0-0.1,0-0.2-0.1-0.4c0-0.1-0.1-0.2-0.2-0.3c0,0,0,0,0,0
				c0-0.1-0.1-0.3-0.2-0.5c0-0.1-0.1-0.1-0.2-0.3c0-0.1,0-0.2-0.1-0.3c0,0,0,0,0,0c0,0,0-0.1-0.1-0.2c-0.1-0.1-0.1-0.2-0.2-0.4
				c0,0,0,0,0-0.1c0,0-0.1-0.1-0.1-0.2c0,0,0-0.1-0.1-0.1c0,0,0-0.1-0.1-0.4c0,0,0-0.1,0-0.1c0,0,0,0-0.1-0.1c0,0,0-0.1,0-0.1
				c0,0,0-0.1-0.1-0.1c0,0,0,0,0-0.1c0,0,0-0.1,0-0.1c0,0,0.1-0.1,0.1-0.1L26.3,22.4C26.2,22.4,26.2,22.4,26.3,22.4
				C26.2,22.4,26.2,22.4,26.3,22.4z"/>
			<path class="st12" d="M29.4,22.4C29.4,22.4,29.4,22.4,29.4,22.4l0.6,0c0,0,0,0,0,0c0,0,0,0,0,0c0,0,0,0,0.1,0c0,0,0.1,0,0.1,0
				c0,0,0,0,0.1,0.1c0,0,0,0.1,0,0.1c0,0,0,0.1,0,0.1c0,0.1,0,0.1,0,0.1c0,0-0.1,0.1-0.1,0.2c0,0,0,0,0,0.1c0,0.1-0.1,0.2-0.2,0.4
				c-0.1,0.1-0.1,0.2-0.2,0.4c0,0.1,0,0.2-0.1,0.4c-0.1,0.2-0.2,0.5-0.4,0.9c0,0,0,0.1,0,0.1c-0.1,0.2-0.1,0.3-0.1,0.4
				c0,0-0.1,0.1-0.1,0.1c0,0-0.1,0-0.1-0.1c0,0-0.1-0.1-0.1-0.1c0,0-0.1-0.2-0.1-0.4c0-0.1-0.1-0.1-0.1-0.2c0,0,0-0.1,0-0.1
				c0,0,0,0,0-0.1c0-0.1,0-0.1,0-0.2c0-0.1,0-0.2,0.1-0.3c0,0,0,0,0.1-0.1c0,0,0,0,0-0.1c0,0,0-0.1,0.1-0.1c0,0,0-0.1,0-0.2
				c0.1-0.1,0.2-0.2,0.2-0.4c0,0,0-0.1,0-0.2c0.1-0.1,0.1-0.2,0.2-0.4c0-0.1,0.1-0.2,0.1-0.2C29.2,22.4,29.3,22.4,29.4,22.4z"/>
		</g>
	</g>
</g>
</svg>
